G04 #@! TF.FileFunction,Copper,L2,Bot,Signal*
%FSLAX46Y46*%
G04 Gerber Fmt 4.6, Leading zero omitted, Abs format (unit mm)*
G04 Created by KiCad (PCBNEW (2016-01-28 BZR 6518)-product) date Saturday, May 07, 2016 'PMt' 06:41:03 PM*
%MOMM*%
G01*
G04 APERTURE LIST*
%ADD10C,0.100000*%
%ADD11C,0.500000*%
%ADD12C,0.150000*%
%ADD13C,1.000000*%
%ADD14O,1.550000X1.000000*%
%ADD15R,1.727200X1.727200*%
%ADD16O,1.727200X1.727200*%
%ADD17R,1.198880X1.699260*%
%ADD18O,1.198880X1.699260*%
%ADD19C,0.600000*%
%ADD20C,0.750000*%
%ADD21C,0.250000*%
G04 APERTURE END LIST*
D10*
D11*
X100975000Y-67750000D02*
X101800000Y-67750000D01*
D12*
X101775000Y-60575000D02*
X101775000Y-60550000D01*
D11*
X100950000Y-60750000D02*
X101775000Y-60750000D01*
D12*
X101875000Y-60775000D02*
X101875000Y-60700000D01*
X100800000Y-60900000D02*
X100800000Y-60700000D01*
X101900000Y-60600000D02*
X101900000Y-60900000D01*
X142500000Y-79000000D02*
X106250000Y-79000000D01*
X100000000Y-50000000D02*
X142250000Y-50000000D01*
X142500000Y-50000000D02*
X100000000Y-50000000D01*
X142500000Y-50500000D02*
X142500000Y-50000000D01*
X138024755Y-76250000D02*
G75*
G03X138024755Y-76250000I-1274755J0D01*
G01*
X118250000Y-52750000D02*
G75*
G03X118250000Y-52750000I-1250000J0D01*
G01*
X100000000Y-72750000D02*
X100250000Y-72750000D01*
X100000000Y-50000000D02*
X100000000Y-72750000D01*
X106250000Y-75500000D02*
X106250000Y-79000000D01*
X100000000Y-72750000D02*
X102750000Y-72750000D01*
X104000000Y-72750000D02*
X100000000Y-72750000D01*
X106250000Y-75500000D02*
G75*
G03X104000000Y-72750000I-2500000J250000D01*
G01*
X100000000Y-50500000D02*
X100000000Y-50000000D01*
X142500000Y-79000000D02*
X142500000Y-50500000D01*
D13*
X104062540Y-61724100D03*
X104062540Y-66724100D03*
D14*
X101362540Y-60724100D03*
X101362540Y-67724100D03*
D15*
X107500000Y-54250000D03*
D16*
X107500000Y-51710000D03*
X104960000Y-54250000D03*
X104960000Y-51710000D03*
X102420000Y-54250000D03*
X102420000Y-51710000D03*
D17*
X108499760Y-72500000D03*
D18*
X110498740Y-72500000D03*
X112500260Y-72500000D03*
X114499240Y-72500000D03*
X116500760Y-72500000D03*
X118499740Y-72500000D03*
X120501260Y-72500000D03*
X122500240Y-72500000D03*
D19*
X131300000Y-67100000D03*
X131400000Y-59900000D03*
X109900000Y-61250000D03*
X122500000Y-59450000D03*
X107250000Y-63000000D03*
X108250000Y-63000000D03*
X107750000Y-62250000D03*
X114250000Y-62250000D03*
X113750000Y-63000000D03*
X114750000Y-63000000D03*
X127250000Y-70750000D03*
X126250000Y-70750000D03*
X134750000Y-53350000D03*
X122500000Y-52500000D03*
X140750000Y-68250000D03*
X105000000Y-56750000D03*
X141250000Y-69000000D03*
X141750000Y-71000000D03*
D20*
X108499760Y-72500000D02*
X108499760Y-73499760D01*
X120750000Y-75000000D02*
X122500240Y-73249760D01*
X110000000Y-75000000D02*
X120750000Y-75000000D01*
X108499760Y-73499760D02*
X110000000Y-75000000D01*
X122500240Y-73249760D02*
X122500240Y-72500000D01*
D21*
X123000000Y-52000000D02*
X122500000Y-52500000D01*
X134750000Y-53350000D02*
X133400000Y-52000000D01*
X133400000Y-52000000D02*
X123000000Y-52000000D01*
X120000000Y-52250000D02*
X117750000Y-54500000D01*
X140500000Y-51500000D02*
X120750000Y-51500000D01*
X141000000Y-52000000D02*
X140500000Y-51500000D01*
X141000000Y-68000000D02*
X141000000Y-52000000D01*
X140750000Y-68250000D02*
X141000000Y-68000000D01*
X120750000Y-51500000D02*
X120000000Y-52250000D01*
X109000000Y-56750000D02*
X105000000Y-56750000D01*
X111250000Y-54500000D02*
X109000000Y-56750000D01*
X117750000Y-54500000D02*
X111250000Y-54500000D01*
X114250000Y-50950002D02*
X113549998Y-50950002D01*
X140700002Y-50950002D02*
X114250000Y-50950002D01*
X141549998Y-51799998D02*
X140700002Y-50950002D01*
X141549998Y-68700002D02*
X141549998Y-51799998D01*
X141250000Y-69000000D02*
X141549998Y-68700002D01*
X106460000Y-55750000D02*
X104960000Y-54250000D01*
X108750000Y-55750000D02*
X106460000Y-55750000D01*
X113549998Y-50950002D02*
X108750000Y-55750000D01*
X114250000Y-50500000D02*
X111250000Y-50500000D01*
X141750000Y-71000000D02*
X142000000Y-70750000D01*
X142000000Y-70750000D02*
X142000000Y-51500000D01*
X142000000Y-51500000D02*
X141000000Y-50500000D01*
X141000000Y-50500000D02*
X114250000Y-50500000D01*
X111250000Y-50500000D02*
X107500000Y-54250000D01*
D10*
G36*
X108088167Y-53131503D02*
X106636400Y-53131503D01*
X106538855Y-53150906D01*
X106456161Y-53206161D01*
X106400906Y-53288855D01*
X106381503Y-53386400D01*
X106381503Y-55113600D01*
X106388349Y-55148019D01*
X105968593Y-54728263D01*
X105988832Y-54697973D01*
X106073600Y-54271817D01*
X106073600Y-54228183D01*
X105988832Y-53802027D01*
X105747434Y-53440749D01*
X105386156Y-53199351D01*
X104960000Y-53114583D01*
X104533844Y-53199351D01*
X104172566Y-53440749D01*
X103931168Y-53802027D01*
X103846400Y-54228183D01*
X103846400Y-54271817D01*
X103931168Y-54697973D01*
X104172566Y-55059251D01*
X104533844Y-55300649D01*
X104960000Y-55385417D01*
X105386156Y-55300649D01*
X105442603Y-55262933D01*
X106194835Y-56015165D01*
X106316493Y-56096455D01*
X106460000Y-56125000D01*
X108750000Y-56125000D01*
X108893507Y-56096455D01*
X109015165Y-56015165D01*
X113705328Y-51325002D01*
X116748624Y-51325002D01*
X116435542Y-51387278D01*
X115957017Y-51707017D01*
X115637278Y-52185542D01*
X115525000Y-52750000D01*
X115637278Y-53314458D01*
X115957017Y-53792983D01*
X116435542Y-54112722D01*
X116497267Y-54125000D01*
X111250000Y-54125000D01*
X111106494Y-54153545D01*
X110984835Y-54234835D01*
X108844670Y-56375000D01*
X105402793Y-56375000D01*
X105311957Y-56284005D01*
X105109882Y-56200096D01*
X104891078Y-56199905D01*
X104688857Y-56283461D01*
X104534005Y-56438043D01*
X104450096Y-56640118D01*
X104449905Y-56858922D01*
X104533461Y-57061143D01*
X104688043Y-57215995D01*
X104890118Y-57299904D01*
X105108922Y-57300095D01*
X105311143Y-57216539D01*
X105402842Y-57125000D01*
X109000000Y-57125000D01*
X109143507Y-57096455D01*
X109265165Y-57015165D01*
X111405330Y-54875000D01*
X117750000Y-54875000D01*
X117893507Y-54846455D01*
X118015165Y-54765165D01*
X120905330Y-51875000D01*
X122594670Y-51875000D01*
X122519653Y-51950017D01*
X122391078Y-51949905D01*
X122188857Y-52033461D01*
X122034005Y-52188043D01*
X121950096Y-52390118D01*
X121949905Y-52608922D01*
X122033461Y-52811143D01*
X122188043Y-52965995D01*
X122390118Y-53049904D01*
X122608922Y-53050095D01*
X122811143Y-52966539D01*
X122965995Y-52811957D01*
X123049904Y-52609882D01*
X123050017Y-52480313D01*
X123155330Y-52375000D01*
X133244670Y-52375000D01*
X134200017Y-53330347D01*
X134199905Y-53458922D01*
X134283461Y-53661143D01*
X134438043Y-53815995D01*
X134640118Y-53899904D01*
X134858922Y-53900095D01*
X135061143Y-53816539D01*
X135215995Y-53661957D01*
X135299904Y-53459882D01*
X135300095Y-53241078D01*
X135216539Y-53038857D01*
X135061957Y-52884005D01*
X134859882Y-52800096D01*
X134730313Y-52799983D01*
X133805330Y-51875000D01*
X140344670Y-51875000D01*
X140625000Y-52155330D01*
X140625000Y-67706548D01*
X140438857Y-67783461D01*
X140284005Y-67938043D01*
X140200096Y-68140118D01*
X140199905Y-68358922D01*
X140283461Y-68561143D01*
X140438043Y-68715995D01*
X140640118Y-68799904D01*
X140737521Y-68799989D01*
X140700096Y-68890118D01*
X140699905Y-69108922D01*
X140783461Y-69311143D01*
X140938043Y-69465995D01*
X141140118Y-69549904D01*
X141358922Y-69550095D01*
X141561143Y-69466539D01*
X141625000Y-69402793D01*
X141625000Y-70456548D01*
X141438857Y-70533461D01*
X141284005Y-70688043D01*
X141200096Y-70890118D01*
X141199905Y-71108922D01*
X141283461Y-71311143D01*
X141438043Y-71465995D01*
X141640118Y-71549904D01*
X141858922Y-71550095D01*
X142061143Y-71466539D01*
X142200000Y-71327924D01*
X142200000Y-78700000D01*
X106550000Y-78700000D01*
X106550000Y-76250000D01*
X135250245Y-76250000D01*
X135364407Y-76823931D01*
X135689513Y-77310487D01*
X136176069Y-77635593D01*
X136750000Y-77749755D01*
X137323931Y-77635593D01*
X137810487Y-77310487D01*
X138135593Y-76823931D01*
X138249755Y-76250000D01*
X138135593Y-75676069D01*
X137810487Y-75189513D01*
X137323931Y-74864407D01*
X136750000Y-74750245D01*
X136176069Y-74864407D01*
X135689513Y-75189513D01*
X135364407Y-75676069D01*
X135250245Y-76250000D01*
X106550000Y-76250000D01*
X106550000Y-74000000D01*
X106546194Y-73980866D01*
X106535355Y-73964645D01*
X105035355Y-72464645D01*
X105019134Y-72453806D01*
X105000000Y-72450000D01*
X100300000Y-72450000D01*
X100300000Y-71650370D01*
X107645423Y-71650370D01*
X107645423Y-73349630D01*
X107664826Y-73447175D01*
X107720081Y-73529869D01*
X107802775Y-73585124D01*
X107895405Y-73603549D01*
X107922335Y-73738937D01*
X108057818Y-73941702D01*
X109558058Y-75441942D01*
X109760823Y-75577425D01*
X110000000Y-75625001D01*
X110000005Y-75625000D01*
X120750000Y-75625000D01*
X120989177Y-75577425D01*
X121191942Y-75441942D01*
X122942182Y-73691702D01*
X123077665Y-73488938D01*
X123100845Y-73372405D01*
X123100885Y-73372378D01*
X123285020Y-73096800D01*
X123349680Y-72771733D01*
X123349680Y-72228267D01*
X123285020Y-71903200D01*
X123100885Y-71627622D01*
X122825307Y-71443487D01*
X122500240Y-71378827D01*
X122175173Y-71443487D01*
X121899595Y-71627622D01*
X121715460Y-71903200D01*
X121650800Y-72228267D01*
X121650800Y-72771733D01*
X121715460Y-73096800D01*
X121737032Y-73129084D01*
X120491116Y-74375000D01*
X110258884Y-74375000D01*
X109333238Y-73449354D01*
X109334694Y-73447175D01*
X109354097Y-73349630D01*
X109354097Y-72228267D01*
X109649300Y-72228267D01*
X109649300Y-72771733D01*
X109713960Y-73096800D01*
X109898095Y-73372378D01*
X110173673Y-73556513D01*
X110498740Y-73621173D01*
X110823807Y-73556513D01*
X111099385Y-73372378D01*
X111283520Y-73096800D01*
X111348180Y-72771733D01*
X111348180Y-72704002D01*
X111478260Y-72704002D01*
X111345835Y-72886267D01*
X111485785Y-73317688D01*
X111780179Y-73662713D01*
X112120543Y-73843571D01*
X112296260Y-73747479D01*
X112296260Y-72704000D01*
X112276260Y-72704000D01*
X112276260Y-72296000D01*
X112296260Y-72296000D01*
X112296260Y-71252521D01*
X112704260Y-71252521D01*
X112704260Y-72296000D01*
X112724260Y-72296000D01*
X112724260Y-72704000D01*
X112704260Y-72704000D01*
X112704260Y-73747479D01*
X112879977Y-73843571D01*
X113220341Y-73662713D01*
X113514735Y-73317688D01*
X113654685Y-72886267D01*
X113522260Y-72704002D01*
X113649800Y-72704002D01*
X113649800Y-72771733D01*
X113714460Y-73096800D01*
X113898595Y-73372378D01*
X114174173Y-73556513D01*
X114499240Y-73621173D01*
X114824307Y-73556513D01*
X115099885Y-73372378D01*
X115284020Y-73096800D01*
X115348680Y-72771733D01*
X115348680Y-72704002D01*
X115478760Y-72704002D01*
X115346335Y-72886267D01*
X115486285Y-73317688D01*
X115780679Y-73662713D01*
X116121043Y-73843571D01*
X116296760Y-73747479D01*
X116296760Y-72704000D01*
X116704760Y-72704000D01*
X116704760Y-73747479D01*
X116880477Y-73843571D01*
X117220841Y-73662713D01*
X117500250Y-73335250D01*
X117779659Y-73662713D01*
X118120023Y-73843571D01*
X118295740Y-73747479D01*
X118295740Y-72704000D01*
X116704760Y-72704000D01*
X116296760Y-72704000D01*
X116276760Y-72704000D01*
X116276760Y-72296000D01*
X116296760Y-72296000D01*
X116296760Y-71252521D01*
X116704760Y-71252521D01*
X116704760Y-72296000D01*
X118295740Y-72296000D01*
X118295740Y-71252521D01*
X118703740Y-71252521D01*
X118703740Y-72296000D01*
X118723740Y-72296000D01*
X118723740Y-72704000D01*
X118703740Y-72704000D01*
X118703740Y-73747479D01*
X118879457Y-73843571D01*
X119219821Y-73662713D01*
X119514215Y-73317688D01*
X119654165Y-72886267D01*
X119521740Y-72704002D01*
X119651820Y-72704002D01*
X119651820Y-72771733D01*
X119716480Y-73096800D01*
X119900615Y-73372378D01*
X120176193Y-73556513D01*
X120501260Y-73621173D01*
X120826327Y-73556513D01*
X121101905Y-73372378D01*
X121286040Y-73096800D01*
X121350700Y-72771733D01*
X121350700Y-72228267D01*
X121286040Y-71903200D01*
X121101905Y-71627622D01*
X120826327Y-71443487D01*
X120501260Y-71378827D01*
X120176193Y-71443487D01*
X119900615Y-71627622D01*
X119716480Y-71903200D01*
X119651820Y-72228267D01*
X119651820Y-72295998D01*
X119521740Y-72295998D01*
X119654165Y-72113733D01*
X119514215Y-71682312D01*
X119219821Y-71337287D01*
X118879457Y-71156429D01*
X118703740Y-71252521D01*
X118295740Y-71252521D01*
X118120023Y-71156429D01*
X117779659Y-71337287D01*
X117500250Y-71664750D01*
X117220841Y-71337287D01*
X116880477Y-71156429D01*
X116704760Y-71252521D01*
X116296760Y-71252521D01*
X116121043Y-71156429D01*
X115780679Y-71337287D01*
X115486285Y-71682312D01*
X115346335Y-72113733D01*
X115478760Y-72295998D01*
X115348680Y-72295998D01*
X115348680Y-72228267D01*
X115284020Y-71903200D01*
X115099885Y-71627622D01*
X114824307Y-71443487D01*
X114499240Y-71378827D01*
X114174173Y-71443487D01*
X113898595Y-71627622D01*
X113714460Y-71903200D01*
X113649800Y-72228267D01*
X113649800Y-72295998D01*
X113522260Y-72295998D01*
X113654685Y-72113733D01*
X113514735Y-71682312D01*
X113220341Y-71337287D01*
X112879977Y-71156429D01*
X112704260Y-71252521D01*
X112296260Y-71252521D01*
X112120543Y-71156429D01*
X111780179Y-71337287D01*
X111485785Y-71682312D01*
X111345835Y-72113733D01*
X111478260Y-72295998D01*
X111348180Y-72295998D01*
X111348180Y-72228267D01*
X111283520Y-71903200D01*
X111099385Y-71627622D01*
X110823807Y-71443487D01*
X110498740Y-71378827D01*
X110173673Y-71443487D01*
X109898095Y-71627622D01*
X109713960Y-71903200D01*
X109649300Y-72228267D01*
X109354097Y-72228267D01*
X109354097Y-71650370D01*
X109334694Y-71552825D01*
X109279439Y-71470131D01*
X109196745Y-71414876D01*
X109099200Y-71395473D01*
X107900320Y-71395473D01*
X107802775Y-71414876D01*
X107720081Y-71470131D01*
X107664826Y-71552825D01*
X107645423Y-71650370D01*
X100300000Y-71650370D01*
X100300000Y-68433422D01*
X100591713Y-68669101D01*
X100991092Y-68786912D01*
X101158540Y-68649415D01*
X101158540Y-68150000D01*
X101566540Y-68150000D01*
X101566540Y-68649415D01*
X101733988Y-68786912D01*
X102133367Y-68669101D01*
X102457261Y-68407422D01*
X102630992Y-68087990D01*
X102533099Y-67928100D01*
X102152830Y-67928100D01*
X102169552Y-67903073D01*
X102200000Y-67750000D01*
X102169552Y-67596927D01*
X102118218Y-67520100D01*
X102533099Y-67520100D01*
X102535224Y-67516629D01*
X103558511Y-67516629D01*
X103604961Y-67700969D01*
X104013624Y-67801717D01*
X104429734Y-67738407D01*
X104520119Y-67700969D01*
X104566569Y-67516629D01*
X104062540Y-67012600D01*
X103558511Y-67516629D01*
X102535224Y-67516629D01*
X102630992Y-67360210D01*
X102457261Y-67040778D01*
X102133367Y-66779099D01*
X101781096Y-66675184D01*
X102984923Y-66675184D01*
X103048233Y-67091294D01*
X103085671Y-67181679D01*
X103270011Y-67228129D01*
X103774040Y-66724100D01*
X104351040Y-66724100D01*
X104855069Y-67228129D01*
X104931293Y-67208922D01*
X130749905Y-67208922D01*
X130833461Y-67411143D01*
X130988043Y-67565995D01*
X131190118Y-67649904D01*
X131408922Y-67650095D01*
X131611143Y-67566539D01*
X131765995Y-67411957D01*
X131849904Y-67209882D01*
X131850095Y-66991078D01*
X131766539Y-66788857D01*
X131611957Y-66634005D01*
X131409882Y-66550096D01*
X131191078Y-66549905D01*
X130988857Y-66633461D01*
X130834005Y-66788043D01*
X130750096Y-66990118D01*
X130749905Y-67208922D01*
X104931293Y-67208922D01*
X105039409Y-67181679D01*
X105140157Y-66773016D01*
X105076847Y-66356906D01*
X105039409Y-66266521D01*
X104855069Y-66220071D01*
X104351040Y-66724100D01*
X103774040Y-66724100D01*
X103270011Y-66220071D01*
X103085671Y-66266521D01*
X102984923Y-66675184D01*
X101781096Y-66675184D01*
X101733988Y-66661288D01*
X101566540Y-66798785D01*
X101566540Y-67350000D01*
X101158540Y-67350000D01*
X101158540Y-66798785D01*
X100991092Y-66661288D01*
X100591713Y-66779099D01*
X100300000Y-67014778D01*
X100300000Y-65931571D01*
X103558511Y-65931571D01*
X104062540Y-66435600D01*
X104566569Y-65931571D01*
X104520119Y-65747231D01*
X104111456Y-65646483D01*
X103695346Y-65709793D01*
X103604961Y-65747231D01*
X103558511Y-65931571D01*
X100300000Y-65931571D01*
X100300000Y-62516629D01*
X103558511Y-62516629D01*
X103604961Y-62700969D01*
X104013624Y-62801717D01*
X104429734Y-62738407D01*
X104520119Y-62700969D01*
X104566569Y-62516629D01*
X104062540Y-62012600D01*
X103558511Y-62516629D01*
X100300000Y-62516629D01*
X100300000Y-61433422D01*
X100591713Y-61669101D01*
X100991092Y-61786912D01*
X101158540Y-61649415D01*
X101158540Y-61150000D01*
X101566540Y-61150000D01*
X101566540Y-61649415D01*
X101733988Y-61786912D01*
X102112745Y-61675184D01*
X102984923Y-61675184D01*
X103048233Y-62091294D01*
X103085671Y-62181679D01*
X103270011Y-62228129D01*
X103774040Y-61724100D01*
X104351040Y-61724100D01*
X104855069Y-62228129D01*
X105039409Y-62181679D01*
X105140157Y-61773016D01*
X105076847Y-61356906D01*
X105039409Y-61266521D01*
X104855069Y-61220071D01*
X104351040Y-61724100D01*
X103774040Y-61724100D01*
X103270011Y-61220071D01*
X103085671Y-61266521D01*
X102984923Y-61675184D01*
X102112745Y-61675184D01*
X102133367Y-61669101D01*
X102457261Y-61407422D01*
X102630992Y-61087990D01*
X102535225Y-60931571D01*
X103558511Y-60931571D01*
X104062540Y-61435600D01*
X104566569Y-60931571D01*
X104520119Y-60747231D01*
X104111456Y-60646483D01*
X103695346Y-60709793D01*
X103604961Y-60747231D01*
X103558511Y-60931571D01*
X102535225Y-60931571D01*
X102533099Y-60928100D01*
X102127830Y-60928100D01*
X102144552Y-60903073D01*
X102175000Y-60750000D01*
X102144552Y-60596927D01*
X102115842Y-60553959D01*
X102109107Y-60520100D01*
X102533099Y-60520100D01*
X102630992Y-60360210D01*
X102457261Y-60040778D01*
X102417832Y-60008922D01*
X130849905Y-60008922D01*
X130933461Y-60211143D01*
X131088043Y-60365995D01*
X131290118Y-60449904D01*
X131508922Y-60450095D01*
X131711143Y-60366539D01*
X131865995Y-60211957D01*
X131949904Y-60009882D01*
X131950095Y-59791078D01*
X131866539Y-59588857D01*
X131711957Y-59434005D01*
X131509882Y-59350096D01*
X131291078Y-59349905D01*
X131088857Y-59433461D01*
X130934005Y-59588043D01*
X130850096Y-59790118D01*
X130849905Y-60008922D01*
X102417832Y-60008922D01*
X102133367Y-59779099D01*
X101733988Y-59661288D01*
X101566540Y-59798785D01*
X101566540Y-60350000D01*
X101158540Y-60350000D01*
X101158540Y-59798785D01*
X100991092Y-59661288D01*
X100591713Y-59779099D01*
X100300000Y-60014778D01*
X100300000Y-54671577D01*
X101062331Y-54671577D01*
X101327008Y-55159044D01*
X101758083Y-55508117D01*
X101998426Y-55607653D01*
X102216000Y-55515766D01*
X102216000Y-54454000D01*
X102624000Y-54454000D01*
X102624000Y-55515766D01*
X102841574Y-55607653D01*
X103081917Y-55508117D01*
X103512992Y-55159044D01*
X103777669Y-54671577D01*
X103687403Y-54454000D01*
X102624000Y-54454000D01*
X102216000Y-54454000D01*
X101152597Y-54454000D01*
X101062331Y-54671577D01*
X100300000Y-54671577D01*
X100300000Y-53828423D01*
X101062331Y-53828423D01*
X101152597Y-54046000D01*
X102216000Y-54046000D01*
X102216000Y-54026000D01*
X102624000Y-54026000D01*
X102624000Y-54046000D01*
X103687403Y-54046000D01*
X103777669Y-53828423D01*
X103512992Y-53340956D01*
X103081917Y-52991883D01*
X102841574Y-52892347D01*
X102624002Y-52984233D01*
X102624002Y-52828400D01*
X102505550Y-52828400D01*
X102846156Y-52760649D01*
X103207434Y-52519251D01*
X103448832Y-52157973D01*
X103533600Y-51731817D01*
X103533600Y-51688183D01*
X103846400Y-51688183D01*
X103846400Y-51731817D01*
X103931168Y-52157973D01*
X104172566Y-52519251D01*
X104533844Y-52760649D01*
X104960000Y-52845417D01*
X105386156Y-52760649D01*
X105747434Y-52519251D01*
X105988832Y-52157973D01*
X106073600Y-51731817D01*
X106073600Y-51688183D01*
X106386400Y-51688183D01*
X106386400Y-51731817D01*
X106471168Y-52157973D01*
X106712566Y-52519251D01*
X107073844Y-52760649D01*
X107500000Y-52845417D01*
X107926156Y-52760649D01*
X108287434Y-52519251D01*
X108528832Y-52157973D01*
X108613600Y-51731817D01*
X108613600Y-51688183D01*
X108528832Y-51262027D01*
X108287434Y-50900749D01*
X107926156Y-50659351D01*
X107500000Y-50574583D01*
X107073844Y-50659351D01*
X106712566Y-50900749D01*
X106471168Y-51262027D01*
X106386400Y-51688183D01*
X106073600Y-51688183D01*
X105988832Y-51262027D01*
X105747434Y-50900749D01*
X105386156Y-50659351D01*
X104960000Y-50574583D01*
X104533844Y-50659351D01*
X104172566Y-50900749D01*
X103931168Y-51262027D01*
X103846400Y-51688183D01*
X103533600Y-51688183D01*
X103448832Y-51262027D01*
X103207434Y-50900749D01*
X102846156Y-50659351D01*
X102420000Y-50574583D01*
X101993844Y-50659351D01*
X101632566Y-50900749D01*
X101391168Y-51262027D01*
X101306400Y-51688183D01*
X101306400Y-51731817D01*
X101391168Y-52157973D01*
X101632566Y-52519251D01*
X101993844Y-52760649D01*
X102334450Y-52828400D01*
X102215998Y-52828400D01*
X102215998Y-52984233D01*
X101998426Y-52892347D01*
X101758083Y-52991883D01*
X101327008Y-53340956D01*
X101062331Y-53828423D01*
X100300000Y-53828423D01*
X100300000Y-50300000D01*
X110919670Y-50300000D01*
X108088167Y-53131503D01*
X108088167Y-53131503D01*
G37*
X108088167Y-53131503D02*
X106636400Y-53131503D01*
X106538855Y-53150906D01*
X106456161Y-53206161D01*
X106400906Y-53288855D01*
X106381503Y-53386400D01*
X106381503Y-55113600D01*
X106388349Y-55148019D01*
X105968593Y-54728263D01*
X105988832Y-54697973D01*
X106073600Y-54271817D01*
X106073600Y-54228183D01*
X105988832Y-53802027D01*
X105747434Y-53440749D01*
X105386156Y-53199351D01*
X104960000Y-53114583D01*
X104533844Y-53199351D01*
X104172566Y-53440749D01*
X103931168Y-53802027D01*
X103846400Y-54228183D01*
X103846400Y-54271817D01*
X103931168Y-54697973D01*
X104172566Y-55059251D01*
X104533844Y-55300649D01*
X104960000Y-55385417D01*
X105386156Y-55300649D01*
X105442603Y-55262933D01*
X106194835Y-56015165D01*
X106316493Y-56096455D01*
X106460000Y-56125000D01*
X108750000Y-56125000D01*
X108893507Y-56096455D01*
X109015165Y-56015165D01*
X113705328Y-51325002D01*
X116748624Y-51325002D01*
X116435542Y-51387278D01*
X115957017Y-51707017D01*
X115637278Y-52185542D01*
X115525000Y-52750000D01*
X115637278Y-53314458D01*
X115957017Y-53792983D01*
X116435542Y-54112722D01*
X116497267Y-54125000D01*
X111250000Y-54125000D01*
X111106494Y-54153545D01*
X110984835Y-54234835D01*
X108844670Y-56375000D01*
X105402793Y-56375000D01*
X105311957Y-56284005D01*
X105109882Y-56200096D01*
X104891078Y-56199905D01*
X104688857Y-56283461D01*
X104534005Y-56438043D01*
X104450096Y-56640118D01*
X104449905Y-56858922D01*
X104533461Y-57061143D01*
X104688043Y-57215995D01*
X104890118Y-57299904D01*
X105108922Y-57300095D01*
X105311143Y-57216539D01*
X105402842Y-57125000D01*
X109000000Y-57125000D01*
X109143507Y-57096455D01*
X109265165Y-57015165D01*
X111405330Y-54875000D01*
X117750000Y-54875000D01*
X117893507Y-54846455D01*
X118015165Y-54765165D01*
X120905330Y-51875000D01*
X122594670Y-51875000D01*
X122519653Y-51950017D01*
X122391078Y-51949905D01*
X122188857Y-52033461D01*
X122034005Y-52188043D01*
X121950096Y-52390118D01*
X121949905Y-52608922D01*
X122033461Y-52811143D01*
X122188043Y-52965995D01*
X122390118Y-53049904D01*
X122608922Y-53050095D01*
X122811143Y-52966539D01*
X122965995Y-52811957D01*
X123049904Y-52609882D01*
X123050017Y-52480313D01*
X123155330Y-52375000D01*
X133244670Y-52375000D01*
X134200017Y-53330347D01*
X134199905Y-53458922D01*
X134283461Y-53661143D01*
X134438043Y-53815995D01*
X134640118Y-53899904D01*
X134858922Y-53900095D01*
X135061143Y-53816539D01*
X135215995Y-53661957D01*
X135299904Y-53459882D01*
X135300095Y-53241078D01*
X135216539Y-53038857D01*
X135061957Y-52884005D01*
X134859882Y-52800096D01*
X134730313Y-52799983D01*
X133805330Y-51875000D01*
X140344670Y-51875000D01*
X140625000Y-52155330D01*
X140625000Y-67706548D01*
X140438857Y-67783461D01*
X140284005Y-67938043D01*
X140200096Y-68140118D01*
X140199905Y-68358922D01*
X140283461Y-68561143D01*
X140438043Y-68715995D01*
X140640118Y-68799904D01*
X140737521Y-68799989D01*
X140700096Y-68890118D01*
X140699905Y-69108922D01*
X140783461Y-69311143D01*
X140938043Y-69465995D01*
X141140118Y-69549904D01*
X141358922Y-69550095D01*
X141561143Y-69466539D01*
X141625000Y-69402793D01*
X141625000Y-70456548D01*
X141438857Y-70533461D01*
X141284005Y-70688043D01*
X141200096Y-70890118D01*
X141199905Y-71108922D01*
X141283461Y-71311143D01*
X141438043Y-71465995D01*
X141640118Y-71549904D01*
X141858922Y-71550095D01*
X142061143Y-71466539D01*
X142200000Y-71327924D01*
X142200000Y-78700000D01*
X106550000Y-78700000D01*
X106550000Y-76250000D01*
X135250245Y-76250000D01*
X135364407Y-76823931D01*
X135689513Y-77310487D01*
X136176069Y-77635593D01*
X136750000Y-77749755D01*
X137323931Y-77635593D01*
X137810487Y-77310487D01*
X138135593Y-76823931D01*
X138249755Y-76250000D01*
X138135593Y-75676069D01*
X137810487Y-75189513D01*
X137323931Y-74864407D01*
X136750000Y-74750245D01*
X136176069Y-74864407D01*
X135689513Y-75189513D01*
X135364407Y-75676069D01*
X135250245Y-76250000D01*
X106550000Y-76250000D01*
X106550000Y-74000000D01*
X106546194Y-73980866D01*
X106535355Y-73964645D01*
X105035355Y-72464645D01*
X105019134Y-72453806D01*
X105000000Y-72450000D01*
X100300000Y-72450000D01*
X100300000Y-71650370D01*
X107645423Y-71650370D01*
X107645423Y-73349630D01*
X107664826Y-73447175D01*
X107720081Y-73529869D01*
X107802775Y-73585124D01*
X107895405Y-73603549D01*
X107922335Y-73738937D01*
X108057818Y-73941702D01*
X109558058Y-75441942D01*
X109760823Y-75577425D01*
X110000000Y-75625001D01*
X110000005Y-75625000D01*
X120750000Y-75625000D01*
X120989177Y-75577425D01*
X121191942Y-75441942D01*
X122942182Y-73691702D01*
X123077665Y-73488938D01*
X123100845Y-73372405D01*
X123100885Y-73372378D01*
X123285020Y-73096800D01*
X123349680Y-72771733D01*
X123349680Y-72228267D01*
X123285020Y-71903200D01*
X123100885Y-71627622D01*
X122825307Y-71443487D01*
X122500240Y-71378827D01*
X122175173Y-71443487D01*
X121899595Y-71627622D01*
X121715460Y-71903200D01*
X121650800Y-72228267D01*
X121650800Y-72771733D01*
X121715460Y-73096800D01*
X121737032Y-73129084D01*
X120491116Y-74375000D01*
X110258884Y-74375000D01*
X109333238Y-73449354D01*
X109334694Y-73447175D01*
X109354097Y-73349630D01*
X109354097Y-72228267D01*
X109649300Y-72228267D01*
X109649300Y-72771733D01*
X109713960Y-73096800D01*
X109898095Y-73372378D01*
X110173673Y-73556513D01*
X110498740Y-73621173D01*
X110823807Y-73556513D01*
X111099385Y-73372378D01*
X111283520Y-73096800D01*
X111348180Y-72771733D01*
X111348180Y-72704002D01*
X111478260Y-72704002D01*
X111345835Y-72886267D01*
X111485785Y-73317688D01*
X111780179Y-73662713D01*
X112120543Y-73843571D01*
X112296260Y-73747479D01*
X112296260Y-72704000D01*
X112276260Y-72704000D01*
X112276260Y-72296000D01*
X112296260Y-72296000D01*
X112296260Y-71252521D01*
X112704260Y-71252521D01*
X112704260Y-72296000D01*
X112724260Y-72296000D01*
X112724260Y-72704000D01*
X112704260Y-72704000D01*
X112704260Y-73747479D01*
X112879977Y-73843571D01*
X113220341Y-73662713D01*
X113514735Y-73317688D01*
X113654685Y-72886267D01*
X113522260Y-72704002D01*
X113649800Y-72704002D01*
X113649800Y-72771733D01*
X113714460Y-73096800D01*
X113898595Y-73372378D01*
X114174173Y-73556513D01*
X114499240Y-73621173D01*
X114824307Y-73556513D01*
X115099885Y-73372378D01*
X115284020Y-73096800D01*
X115348680Y-72771733D01*
X115348680Y-72704002D01*
X115478760Y-72704002D01*
X115346335Y-72886267D01*
X115486285Y-73317688D01*
X115780679Y-73662713D01*
X116121043Y-73843571D01*
X116296760Y-73747479D01*
X116296760Y-72704000D01*
X116704760Y-72704000D01*
X116704760Y-73747479D01*
X116880477Y-73843571D01*
X117220841Y-73662713D01*
X117500250Y-73335250D01*
X117779659Y-73662713D01*
X118120023Y-73843571D01*
X118295740Y-73747479D01*
X118295740Y-72704000D01*
X116704760Y-72704000D01*
X116296760Y-72704000D01*
X116276760Y-72704000D01*
X116276760Y-72296000D01*
X116296760Y-72296000D01*
X116296760Y-71252521D01*
X116704760Y-71252521D01*
X116704760Y-72296000D01*
X118295740Y-72296000D01*
X118295740Y-71252521D01*
X118703740Y-71252521D01*
X118703740Y-72296000D01*
X118723740Y-72296000D01*
X118723740Y-72704000D01*
X118703740Y-72704000D01*
X118703740Y-73747479D01*
X118879457Y-73843571D01*
X119219821Y-73662713D01*
X119514215Y-73317688D01*
X119654165Y-72886267D01*
X119521740Y-72704002D01*
X119651820Y-72704002D01*
X119651820Y-72771733D01*
X119716480Y-73096800D01*
X119900615Y-73372378D01*
X120176193Y-73556513D01*
X120501260Y-73621173D01*
X120826327Y-73556513D01*
X121101905Y-73372378D01*
X121286040Y-73096800D01*
X121350700Y-72771733D01*
X121350700Y-72228267D01*
X121286040Y-71903200D01*
X121101905Y-71627622D01*
X120826327Y-71443487D01*
X120501260Y-71378827D01*
X120176193Y-71443487D01*
X119900615Y-71627622D01*
X119716480Y-71903200D01*
X119651820Y-72228267D01*
X119651820Y-72295998D01*
X119521740Y-72295998D01*
X119654165Y-72113733D01*
X119514215Y-71682312D01*
X119219821Y-71337287D01*
X118879457Y-71156429D01*
X118703740Y-71252521D01*
X118295740Y-71252521D01*
X118120023Y-71156429D01*
X117779659Y-71337287D01*
X117500250Y-71664750D01*
X117220841Y-71337287D01*
X116880477Y-71156429D01*
X116704760Y-71252521D01*
X116296760Y-71252521D01*
X116121043Y-71156429D01*
X115780679Y-71337287D01*
X115486285Y-71682312D01*
X115346335Y-72113733D01*
X115478760Y-72295998D01*
X115348680Y-72295998D01*
X115348680Y-72228267D01*
X115284020Y-71903200D01*
X115099885Y-71627622D01*
X114824307Y-71443487D01*
X114499240Y-71378827D01*
X114174173Y-71443487D01*
X113898595Y-71627622D01*
X113714460Y-71903200D01*
X113649800Y-72228267D01*
X113649800Y-72295998D01*
X113522260Y-72295998D01*
X113654685Y-72113733D01*
X113514735Y-71682312D01*
X113220341Y-71337287D01*
X112879977Y-71156429D01*
X112704260Y-71252521D01*
X112296260Y-71252521D01*
X112120543Y-71156429D01*
X111780179Y-71337287D01*
X111485785Y-71682312D01*
X111345835Y-72113733D01*
X111478260Y-72295998D01*
X111348180Y-72295998D01*
X111348180Y-72228267D01*
X111283520Y-71903200D01*
X111099385Y-71627622D01*
X110823807Y-71443487D01*
X110498740Y-71378827D01*
X110173673Y-71443487D01*
X109898095Y-71627622D01*
X109713960Y-71903200D01*
X109649300Y-72228267D01*
X109354097Y-72228267D01*
X109354097Y-71650370D01*
X109334694Y-71552825D01*
X109279439Y-71470131D01*
X109196745Y-71414876D01*
X109099200Y-71395473D01*
X107900320Y-71395473D01*
X107802775Y-71414876D01*
X107720081Y-71470131D01*
X107664826Y-71552825D01*
X107645423Y-71650370D01*
X100300000Y-71650370D01*
X100300000Y-68433422D01*
X100591713Y-68669101D01*
X100991092Y-68786912D01*
X101158540Y-68649415D01*
X101158540Y-68150000D01*
X101566540Y-68150000D01*
X101566540Y-68649415D01*
X101733988Y-68786912D01*
X102133367Y-68669101D01*
X102457261Y-68407422D01*
X102630992Y-68087990D01*
X102533099Y-67928100D01*
X102152830Y-67928100D01*
X102169552Y-67903073D01*
X102200000Y-67750000D01*
X102169552Y-67596927D01*
X102118218Y-67520100D01*
X102533099Y-67520100D01*
X102535224Y-67516629D01*
X103558511Y-67516629D01*
X103604961Y-67700969D01*
X104013624Y-67801717D01*
X104429734Y-67738407D01*
X104520119Y-67700969D01*
X104566569Y-67516629D01*
X104062540Y-67012600D01*
X103558511Y-67516629D01*
X102535224Y-67516629D01*
X102630992Y-67360210D01*
X102457261Y-67040778D01*
X102133367Y-66779099D01*
X101781096Y-66675184D01*
X102984923Y-66675184D01*
X103048233Y-67091294D01*
X103085671Y-67181679D01*
X103270011Y-67228129D01*
X103774040Y-66724100D01*
X104351040Y-66724100D01*
X104855069Y-67228129D01*
X104931293Y-67208922D01*
X130749905Y-67208922D01*
X130833461Y-67411143D01*
X130988043Y-67565995D01*
X131190118Y-67649904D01*
X131408922Y-67650095D01*
X131611143Y-67566539D01*
X131765995Y-67411957D01*
X131849904Y-67209882D01*
X131850095Y-66991078D01*
X131766539Y-66788857D01*
X131611957Y-66634005D01*
X131409882Y-66550096D01*
X131191078Y-66549905D01*
X130988857Y-66633461D01*
X130834005Y-66788043D01*
X130750096Y-66990118D01*
X130749905Y-67208922D01*
X104931293Y-67208922D01*
X105039409Y-67181679D01*
X105140157Y-66773016D01*
X105076847Y-66356906D01*
X105039409Y-66266521D01*
X104855069Y-66220071D01*
X104351040Y-66724100D01*
X103774040Y-66724100D01*
X103270011Y-66220071D01*
X103085671Y-66266521D01*
X102984923Y-66675184D01*
X101781096Y-66675184D01*
X101733988Y-66661288D01*
X101566540Y-66798785D01*
X101566540Y-67350000D01*
X101158540Y-67350000D01*
X101158540Y-66798785D01*
X100991092Y-66661288D01*
X100591713Y-66779099D01*
X100300000Y-67014778D01*
X100300000Y-65931571D01*
X103558511Y-65931571D01*
X104062540Y-66435600D01*
X104566569Y-65931571D01*
X104520119Y-65747231D01*
X104111456Y-65646483D01*
X103695346Y-65709793D01*
X103604961Y-65747231D01*
X103558511Y-65931571D01*
X100300000Y-65931571D01*
X100300000Y-62516629D01*
X103558511Y-62516629D01*
X103604961Y-62700969D01*
X104013624Y-62801717D01*
X104429734Y-62738407D01*
X104520119Y-62700969D01*
X104566569Y-62516629D01*
X104062540Y-62012600D01*
X103558511Y-62516629D01*
X100300000Y-62516629D01*
X100300000Y-61433422D01*
X100591713Y-61669101D01*
X100991092Y-61786912D01*
X101158540Y-61649415D01*
X101158540Y-61150000D01*
X101566540Y-61150000D01*
X101566540Y-61649415D01*
X101733988Y-61786912D01*
X102112745Y-61675184D01*
X102984923Y-61675184D01*
X103048233Y-62091294D01*
X103085671Y-62181679D01*
X103270011Y-62228129D01*
X103774040Y-61724100D01*
X104351040Y-61724100D01*
X104855069Y-62228129D01*
X105039409Y-62181679D01*
X105140157Y-61773016D01*
X105076847Y-61356906D01*
X105039409Y-61266521D01*
X104855069Y-61220071D01*
X104351040Y-61724100D01*
X103774040Y-61724100D01*
X103270011Y-61220071D01*
X103085671Y-61266521D01*
X102984923Y-61675184D01*
X102112745Y-61675184D01*
X102133367Y-61669101D01*
X102457261Y-61407422D01*
X102630992Y-61087990D01*
X102535225Y-60931571D01*
X103558511Y-60931571D01*
X104062540Y-61435600D01*
X104566569Y-60931571D01*
X104520119Y-60747231D01*
X104111456Y-60646483D01*
X103695346Y-60709793D01*
X103604961Y-60747231D01*
X103558511Y-60931571D01*
X102535225Y-60931571D01*
X102533099Y-60928100D01*
X102127830Y-60928100D01*
X102144552Y-60903073D01*
X102175000Y-60750000D01*
X102144552Y-60596927D01*
X102115842Y-60553959D01*
X102109107Y-60520100D01*
X102533099Y-60520100D01*
X102630992Y-60360210D01*
X102457261Y-60040778D01*
X102417832Y-60008922D01*
X130849905Y-60008922D01*
X130933461Y-60211143D01*
X131088043Y-60365995D01*
X131290118Y-60449904D01*
X131508922Y-60450095D01*
X131711143Y-60366539D01*
X131865995Y-60211957D01*
X131949904Y-60009882D01*
X131950095Y-59791078D01*
X131866539Y-59588857D01*
X131711957Y-59434005D01*
X131509882Y-59350096D01*
X131291078Y-59349905D01*
X131088857Y-59433461D01*
X130934005Y-59588043D01*
X130850096Y-59790118D01*
X130849905Y-60008922D01*
X102417832Y-60008922D01*
X102133367Y-59779099D01*
X101733988Y-59661288D01*
X101566540Y-59798785D01*
X101566540Y-60350000D01*
X101158540Y-60350000D01*
X101158540Y-59798785D01*
X100991092Y-59661288D01*
X100591713Y-59779099D01*
X100300000Y-60014778D01*
X100300000Y-54671577D01*
X101062331Y-54671577D01*
X101327008Y-55159044D01*
X101758083Y-55508117D01*
X101998426Y-55607653D01*
X102216000Y-55515766D01*
X102216000Y-54454000D01*
X102624000Y-54454000D01*
X102624000Y-55515766D01*
X102841574Y-55607653D01*
X103081917Y-55508117D01*
X103512992Y-55159044D01*
X103777669Y-54671577D01*
X103687403Y-54454000D01*
X102624000Y-54454000D01*
X102216000Y-54454000D01*
X101152597Y-54454000D01*
X101062331Y-54671577D01*
X100300000Y-54671577D01*
X100300000Y-53828423D01*
X101062331Y-53828423D01*
X101152597Y-54046000D01*
X102216000Y-54046000D01*
X102216000Y-54026000D01*
X102624000Y-54026000D01*
X102624000Y-54046000D01*
X103687403Y-54046000D01*
X103777669Y-53828423D01*
X103512992Y-53340956D01*
X103081917Y-52991883D01*
X102841574Y-52892347D01*
X102624002Y-52984233D01*
X102624002Y-52828400D01*
X102505550Y-52828400D01*
X102846156Y-52760649D01*
X103207434Y-52519251D01*
X103448832Y-52157973D01*
X103533600Y-51731817D01*
X103533600Y-51688183D01*
X103846400Y-51688183D01*
X103846400Y-51731817D01*
X103931168Y-52157973D01*
X104172566Y-52519251D01*
X104533844Y-52760649D01*
X104960000Y-52845417D01*
X105386156Y-52760649D01*
X105747434Y-52519251D01*
X105988832Y-52157973D01*
X106073600Y-51731817D01*
X106073600Y-51688183D01*
X106386400Y-51688183D01*
X106386400Y-51731817D01*
X106471168Y-52157973D01*
X106712566Y-52519251D01*
X107073844Y-52760649D01*
X107500000Y-52845417D01*
X107926156Y-52760649D01*
X108287434Y-52519251D01*
X108528832Y-52157973D01*
X108613600Y-51731817D01*
X108613600Y-51688183D01*
X108528832Y-51262027D01*
X108287434Y-50900749D01*
X107926156Y-50659351D01*
X107500000Y-50574583D01*
X107073844Y-50659351D01*
X106712566Y-50900749D01*
X106471168Y-51262027D01*
X106386400Y-51688183D01*
X106073600Y-51688183D01*
X105988832Y-51262027D01*
X105747434Y-50900749D01*
X105386156Y-50659351D01*
X104960000Y-50574583D01*
X104533844Y-50659351D01*
X104172566Y-50900749D01*
X103931168Y-51262027D01*
X103846400Y-51688183D01*
X103533600Y-51688183D01*
X103448832Y-51262027D01*
X103207434Y-50900749D01*
X102846156Y-50659351D01*
X102420000Y-50574583D01*
X101993844Y-50659351D01*
X101632566Y-50900749D01*
X101391168Y-51262027D01*
X101306400Y-51688183D01*
X101306400Y-51731817D01*
X101391168Y-52157973D01*
X101632566Y-52519251D01*
X101993844Y-52760649D01*
X102334450Y-52828400D01*
X102215998Y-52828400D01*
X102215998Y-52984233D01*
X101998426Y-52892347D01*
X101758083Y-52991883D01*
X101327008Y-53340956D01*
X101062331Y-53828423D01*
X100300000Y-53828423D01*
X100300000Y-50300000D01*
X110919670Y-50300000D01*
X108088167Y-53131503D01*
M02*
