M48
INCH,TZ
T1C0.016
T2C0.020
T3C0.022
T4C0.028
T5C0.040
%
G90
G05
T1
X41339Y-22343
X42224Y-24803
X42421Y-24508
X42618Y-24803
X43268Y-24114
X44783Y-24803
X44980Y-24508
X45177Y-24803
X48228Y-20669
X48228Y-23406
X49705Y-27854
X50098Y-27854
X51693Y-26417
X51732Y-23583
X53051Y-21004
X55413Y-26870
X55610Y-27165
X55807Y-27953
T2
X39907Y-23907
X39907Y-26663
T3
X40970Y-24301
X40970Y-26269
T4
X42716Y-28543
X43503Y-28543
X44291Y-28543
X45078Y-28543
X45866Y-28543
X46653Y-28543
X47441Y-28543
X48228Y-28543
T5
X40323Y-20358
X40323Y-21358
X41323Y-20358
X41323Y-21358
X42323Y-20358
X42323Y-21358
T0
M30
