G04 #@! TF.FileFunction,Legend,Top*
%FSLAX46Y46*%
G04 Gerber Fmt 4.6, Leading zero omitted, Abs format (unit mm)*
G04 Created by KiCad (PCBNEW (2016-01-28 BZR 6518)-product) date Saturday, May 07, 2016 'PMt' 06:41:03 PM*
%MOMM*%
G01*
G04 APERTURE LIST*
%ADD10C,0.100000*%
%ADD11C,0.500000*%
%ADD12C,0.150000*%
%ADD13C,0.250000*%
%ADD14C,0.200000*%
%ADD15C,0.381000*%
G04 APERTURE END LIST*
D10*
D11*
X100975000Y-67750000D02*
X101800000Y-67750000D01*
D12*
X101775000Y-60575000D02*
X101775000Y-60550000D01*
D11*
X100950000Y-60750000D02*
X101775000Y-60750000D01*
D12*
X101875000Y-60775000D02*
X101875000Y-60700000D01*
X100800000Y-60900000D02*
X100800000Y-60700000D01*
X101900000Y-60600000D02*
X101900000Y-60900000D01*
D13*
X109547619Y-51214286D02*
X110547619Y-51214286D01*
X110547619Y-51595239D01*
X110500000Y-51690477D01*
X110452381Y-51738096D01*
X110357143Y-51785715D01*
X110214286Y-51785715D01*
X110119048Y-51738096D01*
X110071429Y-51690477D01*
X110023810Y-51595239D01*
X110023810Y-51214286D01*
X109547619Y-52785715D02*
X110023810Y-52452381D01*
X109547619Y-52214286D02*
X110547619Y-52214286D01*
X110547619Y-52595239D01*
X110500000Y-52690477D01*
X110452381Y-52738096D01*
X110357143Y-52785715D01*
X110214286Y-52785715D01*
X110119048Y-52738096D01*
X110071429Y-52690477D01*
X110023810Y-52595239D01*
X110023810Y-52214286D01*
X110547619Y-53404762D02*
X110547619Y-53595239D01*
X110500000Y-53690477D01*
X110404762Y-53785715D01*
X110214286Y-53833334D01*
X109880952Y-53833334D01*
X109690476Y-53785715D01*
X109595238Y-53690477D01*
X109547619Y-53595239D01*
X109547619Y-53404762D01*
X109595238Y-53309524D01*
X109690476Y-53214286D01*
X109880952Y-53166667D01*
X110214286Y-53166667D01*
X110404762Y-53214286D01*
X110500000Y-53309524D01*
X110547619Y-53404762D01*
X110500000Y-54785715D02*
X110547619Y-54690477D01*
X110547619Y-54547620D01*
X110500000Y-54404762D01*
X110404762Y-54309524D01*
X110309524Y-54261905D01*
X110119048Y-54214286D01*
X109976190Y-54214286D01*
X109785714Y-54261905D01*
X109690476Y-54309524D01*
X109595238Y-54404762D01*
X109547619Y-54547620D01*
X109547619Y-54642858D01*
X109595238Y-54785715D01*
X109642857Y-54833334D01*
X109976190Y-54833334D01*
X109976190Y-54642858D01*
X106547619Y-60785714D02*
X105738095Y-60785714D01*
X105642857Y-60833333D01*
X105595238Y-60880952D01*
X105547619Y-60976190D01*
X105547619Y-61166667D01*
X105595238Y-61261905D01*
X105642857Y-61309524D01*
X105738095Y-61357143D01*
X106547619Y-61357143D01*
X105595238Y-61785714D02*
X105547619Y-61928571D01*
X105547619Y-62166667D01*
X105595238Y-62261905D01*
X105642857Y-62309524D01*
X105738095Y-62357143D01*
X105833333Y-62357143D01*
X105928571Y-62309524D01*
X105976190Y-62261905D01*
X106023810Y-62166667D01*
X106071429Y-61976190D01*
X106119048Y-61880952D01*
X106166667Y-61833333D01*
X106261905Y-61785714D01*
X106357143Y-61785714D01*
X106452381Y-61833333D01*
X106500000Y-61880952D01*
X106547619Y-61976190D01*
X106547619Y-62214286D01*
X106500000Y-62357143D01*
X106071429Y-63119048D02*
X106023810Y-63261905D01*
X105976190Y-63309524D01*
X105880952Y-63357143D01*
X105738095Y-63357143D01*
X105642857Y-63309524D01*
X105595238Y-63261905D01*
X105547619Y-63166667D01*
X105547619Y-62785714D01*
X106547619Y-62785714D01*
X106547619Y-63119048D01*
X106500000Y-63214286D01*
X106452381Y-63261905D01*
X106357143Y-63309524D01*
X106261905Y-63309524D01*
X106166667Y-63261905D01*
X106119048Y-63214286D01*
X106071429Y-63119048D01*
X106071429Y-62785714D01*
X105547619Y-64547619D02*
X106547619Y-64547619D01*
X106547619Y-64928572D01*
X106500000Y-65023810D01*
X106452381Y-65071429D01*
X106357143Y-65119048D01*
X106214286Y-65119048D01*
X106119048Y-65071429D01*
X106071429Y-65023810D01*
X106023810Y-64928572D01*
X106023810Y-64547619D01*
X106547619Y-65452381D02*
X105547619Y-65690476D01*
X106261905Y-65880953D01*
X105547619Y-66071429D01*
X106547619Y-66309524D01*
X105547619Y-67261905D02*
X106023810Y-66928571D01*
X105547619Y-66690476D02*
X106547619Y-66690476D01*
X106547619Y-67071429D01*
X106500000Y-67166667D01*
X106452381Y-67214286D01*
X106357143Y-67261905D01*
X106214286Y-67261905D01*
X106119048Y-67214286D01*
X106071429Y-67166667D01*
X106023810Y-67071429D01*
X106023810Y-66690476D01*
D12*
X142500000Y-79000000D02*
X106250000Y-79000000D01*
X100000000Y-50000000D02*
X142250000Y-50000000D01*
X142500000Y-50000000D02*
X100000000Y-50000000D01*
X142500000Y-50500000D02*
X142500000Y-50000000D01*
D14*
X139250000Y-76250000D02*
G75*
G03X139250000Y-76250000I-2500000J0D01*
G01*
X119512469Y-52750000D02*
G75*
G03X119512469Y-52750000I-2512469J0D01*
G01*
D12*
X138024755Y-76250000D02*
G75*
G03X138024755Y-76250000I-1274755J0D01*
G01*
X118250000Y-52750000D02*
G75*
G03X118250000Y-52750000I-1250000J0D01*
G01*
X100000000Y-72750000D02*
X100250000Y-72750000D01*
X100000000Y-50000000D02*
X100000000Y-72750000D01*
X106250000Y-75500000D02*
X106250000Y-79000000D01*
X100000000Y-72750000D02*
X102750000Y-72750000D01*
X104000000Y-72750000D02*
X100000000Y-72750000D01*
X106250000Y-75500000D02*
G75*
G03X104000000Y-72750000I-2500000J250000D01*
G01*
X100000000Y-50500000D02*
X100000000Y-50000000D01*
X142500000Y-79000000D02*
X142500000Y-50500000D01*
X106900000Y-60500000D02*
X106900000Y-61500000D01*
X108600000Y-61500000D02*
X108600000Y-60500000D01*
X113400000Y-60500000D02*
X113400000Y-61500000D01*
X115100000Y-61500000D02*
X115100000Y-60500000D01*
X121900000Y-58850000D02*
X121900000Y-58150000D01*
X123100000Y-58150000D02*
X123100000Y-58850000D01*
X115850000Y-70850000D02*
X115150000Y-70850000D01*
X115150000Y-69650000D02*
X115850000Y-69650000D01*
X110800000Y-59550000D02*
G75*
G03X110800000Y-59550000I-100000J0D01*
G01*
X111250000Y-59800000D02*
X110750000Y-59800000D01*
X111250000Y-62700000D02*
X111250000Y-59800000D01*
X110750000Y-62700000D02*
X111250000Y-62700000D01*
X110750000Y-59800000D02*
X110750000Y-62700000D01*
X98682540Y-59874100D02*
X98682540Y-68574100D01*
X105087540Y-59874100D02*
X105087540Y-68574100D01*
X105087540Y-68574100D02*
X98682540Y-68574100D01*
X99912540Y-68574100D02*
X99912540Y-59874100D01*
X98682540Y-59874100D02*
X105087540Y-59874100D01*
X105500000Y-56075000D02*
X106500000Y-56075000D01*
X106500000Y-57425000D02*
X105500000Y-57425000D01*
X134075000Y-52750000D02*
X134075000Y-51750000D01*
X135425000Y-51750000D02*
X135425000Y-52750000D01*
X127250000Y-74075000D02*
X128250000Y-74075000D01*
X128250000Y-75425000D02*
X127250000Y-75425000D01*
X136075000Y-52750000D02*
X136075000Y-51750000D01*
X137425000Y-51750000D02*
X137425000Y-52750000D01*
X115000000Y-67825000D02*
X116000000Y-67825000D01*
X116000000Y-69175000D02*
X115000000Y-69175000D01*
D15*
X109000140Y-74498980D02*
X121999860Y-74498980D01*
X124499220Y-78799200D02*
X106500780Y-78799200D01*
X106500780Y-72898780D02*
X124499220Y-72898780D01*
X108200040Y-76599560D02*
X108200040Y-78799200D01*
X108200040Y-78799200D02*
X107900320Y-78799200D01*
X107900320Y-78799200D02*
X107900320Y-76599560D01*
X121999860Y-74498980D02*
X121999860Y-78799200D01*
X109000140Y-74498980D02*
X109000140Y-78799200D01*
X122797420Y-76599560D02*
X122797420Y-74999360D01*
X123798180Y-76599560D02*
X122797420Y-76599560D01*
X123798180Y-74999360D02*
X123798180Y-76599560D01*
X122797420Y-74999360D02*
X123798180Y-74999360D01*
X107199280Y-74999360D02*
X108200040Y-74999360D01*
X108200040Y-74999360D02*
X108200040Y-76599560D01*
X108200040Y-76599560D02*
X107199280Y-76599560D01*
X107199280Y-76599560D02*
X107199280Y-74999360D01*
X124298560Y-71100460D02*
X124298560Y-72898780D01*
X106703980Y-71100460D02*
X106703980Y-72898780D01*
X124499220Y-78799200D02*
X124499220Y-71100460D01*
X124499220Y-71100460D02*
X124100440Y-71100460D01*
X124100440Y-71100460D02*
X124100440Y-72898780D01*
X106902100Y-72898780D02*
X106902100Y-71100460D01*
X106902100Y-71100460D02*
X106503320Y-71100460D01*
X106503320Y-71100460D02*
X106503320Y-78799200D01*
D12*
X107583334Y-58607143D02*
X107535715Y-58654762D01*
X107392858Y-58702381D01*
X107297620Y-58702381D01*
X107154762Y-58654762D01*
X107059524Y-58559524D01*
X107011905Y-58464286D01*
X106964286Y-58273810D01*
X106964286Y-58130952D01*
X107011905Y-57940476D01*
X107059524Y-57845238D01*
X107154762Y-57750000D01*
X107297620Y-57702381D01*
X107392858Y-57702381D01*
X107535715Y-57750000D01*
X107583334Y-57797619D01*
X108535715Y-58702381D02*
X107964286Y-58702381D01*
X108250000Y-58702381D02*
X108250000Y-57702381D01*
X108154762Y-57845238D01*
X108059524Y-57940476D01*
X107964286Y-57988095D01*
X114083334Y-58607143D02*
X114035715Y-58654762D01*
X113892858Y-58702381D01*
X113797620Y-58702381D01*
X113654762Y-58654762D01*
X113559524Y-58559524D01*
X113511905Y-58464286D01*
X113464286Y-58273810D01*
X113464286Y-58130952D01*
X113511905Y-57940476D01*
X113559524Y-57845238D01*
X113654762Y-57750000D01*
X113797620Y-57702381D01*
X113892858Y-57702381D01*
X114035715Y-57750000D01*
X114083334Y-57797619D01*
X114464286Y-57797619D02*
X114511905Y-57750000D01*
X114607143Y-57702381D01*
X114845239Y-57702381D01*
X114940477Y-57750000D01*
X114988096Y-57797619D01*
X115035715Y-57892857D01*
X115035715Y-57988095D01*
X114988096Y-58130952D01*
X114416667Y-58702381D01*
X115035715Y-58702381D01*
X122857143Y-61666666D02*
X122904762Y-61714285D01*
X122952381Y-61857142D01*
X122952381Y-61952380D01*
X122904762Y-62095238D01*
X122809524Y-62190476D01*
X122714286Y-62238095D01*
X122523810Y-62285714D01*
X122380952Y-62285714D01*
X122190476Y-62238095D01*
X122095238Y-62190476D01*
X122000000Y-62095238D01*
X121952381Y-61952380D01*
X121952381Y-61857142D01*
X122000000Y-61714285D01*
X122047619Y-61666666D01*
X121952381Y-61333333D02*
X121952381Y-60714285D01*
X122333333Y-61047619D01*
X122333333Y-60904761D01*
X122380952Y-60809523D01*
X122428571Y-60761904D01*
X122523810Y-60714285D01*
X122761905Y-60714285D01*
X122857143Y-60761904D01*
X122904762Y-60809523D01*
X122952381Y-60904761D01*
X122952381Y-61190476D01*
X122904762Y-61285714D01*
X122857143Y-61333333D01*
X112333334Y-70607143D02*
X112285715Y-70654762D01*
X112142858Y-70702381D01*
X112047620Y-70702381D01*
X111904762Y-70654762D01*
X111809524Y-70559524D01*
X111761905Y-70464286D01*
X111714286Y-70273810D01*
X111714286Y-70130952D01*
X111761905Y-69940476D01*
X111809524Y-69845238D01*
X111904762Y-69750000D01*
X112047620Y-69702381D01*
X112142858Y-69702381D01*
X112285715Y-69750000D01*
X112333334Y-69797619D01*
X113190477Y-70035714D02*
X113190477Y-70702381D01*
X112952381Y-69654762D02*
X112714286Y-70369048D01*
X113333334Y-70369048D01*
X132702381Y-65511905D02*
X133511905Y-65511905D01*
X133607143Y-65464286D01*
X133654762Y-65416667D01*
X133702381Y-65321429D01*
X133702381Y-65130952D01*
X133654762Y-65035714D01*
X133607143Y-64988095D01*
X133511905Y-64940476D01*
X132702381Y-64940476D01*
X133702381Y-63940476D02*
X133702381Y-64511905D01*
X133702381Y-64226191D02*
X132702381Y-64226191D01*
X132845238Y-64321429D01*
X132940476Y-64416667D01*
X132988095Y-64511905D01*
X110188095Y-58152381D02*
X110188095Y-58961905D01*
X110235714Y-59057143D01*
X110283333Y-59104762D01*
X110378571Y-59152381D01*
X110569048Y-59152381D01*
X110664286Y-59104762D01*
X110711905Y-59057143D01*
X110759524Y-58961905D01*
X110759524Y-58152381D01*
X111188095Y-58247619D02*
X111235714Y-58200000D01*
X111330952Y-58152381D01*
X111569048Y-58152381D01*
X111664286Y-58200000D01*
X111711905Y-58247619D01*
X111759524Y-58342857D01*
X111759524Y-58438095D01*
X111711905Y-58580952D01*
X111140476Y-59152381D01*
X111759524Y-59152381D01*
X102833334Y-57202381D02*
X102500000Y-56726190D01*
X102261905Y-57202381D02*
X102261905Y-56202381D01*
X102642858Y-56202381D01*
X102738096Y-56250000D01*
X102785715Y-56297619D01*
X102833334Y-56392857D01*
X102833334Y-56535714D01*
X102785715Y-56630952D01*
X102738096Y-56678571D01*
X102642858Y-56726190D01*
X102261905Y-56726190D01*
X103785715Y-57202381D02*
X103214286Y-57202381D01*
X103500000Y-57202381D02*
X103500000Y-56202381D01*
X103404762Y-56345238D01*
X103309524Y-56440476D01*
X103214286Y-56488095D01*
X133702381Y-52416666D02*
X133226190Y-52750000D01*
X133702381Y-52988095D02*
X132702381Y-52988095D01*
X132702381Y-52607142D01*
X132750000Y-52511904D01*
X132797619Y-52464285D01*
X132892857Y-52416666D01*
X133035714Y-52416666D01*
X133130952Y-52464285D01*
X133178571Y-52511904D01*
X133226190Y-52607142D01*
X133226190Y-52988095D01*
X132797619Y-52035714D02*
X132750000Y-51988095D01*
X132702381Y-51892857D01*
X132702381Y-51654761D01*
X132750000Y-51559523D01*
X132797619Y-51511904D01*
X132892857Y-51464285D01*
X132988095Y-51464285D01*
X133130952Y-51511904D01*
X133702381Y-52083333D01*
X133702381Y-51464285D01*
X130583334Y-75202381D02*
X130250000Y-74726190D01*
X130011905Y-75202381D02*
X130011905Y-74202381D01*
X130392858Y-74202381D01*
X130488096Y-74250000D01*
X130535715Y-74297619D01*
X130583334Y-74392857D01*
X130583334Y-74535714D01*
X130535715Y-74630952D01*
X130488096Y-74678571D01*
X130392858Y-74726190D01*
X130011905Y-74726190D01*
X130916667Y-74202381D02*
X131535715Y-74202381D01*
X131202381Y-74583333D01*
X131345239Y-74583333D01*
X131440477Y-74630952D01*
X131488096Y-74678571D01*
X131535715Y-74773810D01*
X131535715Y-75011905D01*
X131488096Y-75107143D01*
X131440477Y-75154762D01*
X131345239Y-75202381D01*
X131059524Y-75202381D01*
X130964286Y-75154762D01*
X130916667Y-75107143D01*
X138702381Y-52416666D02*
X138226190Y-52750000D01*
X138702381Y-52988095D02*
X137702381Y-52988095D01*
X137702381Y-52607142D01*
X137750000Y-52511904D01*
X137797619Y-52464285D01*
X137892857Y-52416666D01*
X138035714Y-52416666D01*
X138130952Y-52464285D01*
X138178571Y-52511904D01*
X138226190Y-52607142D01*
X138226190Y-52988095D01*
X138035714Y-51559523D02*
X138702381Y-51559523D01*
X137654762Y-51797619D02*
X138369048Y-52035714D01*
X138369048Y-51416666D01*
X112333334Y-68952381D02*
X112000000Y-68476190D01*
X111761905Y-68952381D02*
X111761905Y-67952381D01*
X112142858Y-67952381D01*
X112238096Y-68000000D01*
X112285715Y-68047619D01*
X112333334Y-68142857D01*
X112333334Y-68285714D01*
X112285715Y-68380952D01*
X112238096Y-68428571D01*
X112142858Y-68476190D01*
X111761905Y-68476190D01*
X113238096Y-67952381D02*
X112761905Y-67952381D01*
X112714286Y-68428571D01*
X112761905Y-68380952D01*
X112857143Y-68333333D01*
X113095239Y-68333333D01*
X113190477Y-68380952D01*
X113238096Y-68428571D01*
X113285715Y-68523810D01*
X113285715Y-68761905D01*
X113238096Y-68857143D01*
X113190477Y-68904762D01*
X113095239Y-68952381D01*
X112857143Y-68952381D01*
X112761905Y-68904762D01*
X112714286Y-68857143D01*
M02*
