G04 #@! TF.FileFunction,Copper,L1,Top,Signal*
%FSLAX46Y46*%
G04 Gerber Fmt 4.6, Leading zero omitted, Abs format (unit mm)*
G04 Created by KiCad (PCBNEW (2016-01-28 BZR 6518)-product) date Saturday, May 07, 2016 'PMt' 06:41:03 PM*
%MOMM*%
G01*
G04 APERTURE LIST*
%ADD10C,0.100000*%
%ADD11C,0.500000*%
%ADD12C,0.150000*%
%ADD13R,1.250000X1.500000*%
%ADD14R,0.750000X1.200000*%
%ADD15R,1.200000X0.750000*%
%ADD16O,2.400000X1.100000*%
%ADD17R,1.100000X2.400000*%
%ADD18O,1.100000X2.400000*%
%ADD19R,1.060000X0.650000*%
%ADD20R,1.350000X0.400000*%
%ADD21C,1.000000*%
%ADD22O,1.550000X1.000000*%
%ADD23R,1.727200X1.727200*%
%ADD24O,1.727200X1.727200*%
%ADD25R,1.200000X0.900000*%
%ADD26R,0.900000X1.200000*%
%ADD27R,1.198880X1.699260*%
%ADD28O,1.198880X1.699260*%
%ADD29C,0.600000*%
%ADD30C,0.250000*%
%ADD31C,0.750000*%
G04 APERTURE END LIST*
D10*
D11*
X100975000Y-67750000D02*
X101800000Y-67750000D01*
D12*
X101775000Y-60575000D02*
X101775000Y-60550000D01*
D11*
X100950000Y-60750000D02*
X101775000Y-60750000D01*
D12*
X101875000Y-60775000D02*
X101875000Y-60700000D01*
X100800000Y-60900000D02*
X100800000Y-60700000D01*
X101900000Y-60600000D02*
X101900000Y-60900000D01*
X142500000Y-79000000D02*
X106250000Y-79000000D01*
X100000000Y-50000000D02*
X142250000Y-50000000D01*
X142500000Y-50000000D02*
X100000000Y-50000000D01*
X142500000Y-50500000D02*
X142500000Y-50000000D01*
X138024755Y-76250000D02*
G75*
G03X138024755Y-76250000I-1274755J0D01*
G01*
X118250000Y-52750000D02*
G75*
G03X118250000Y-52750000I-1250000J0D01*
G01*
X100000000Y-72750000D02*
X100250000Y-72750000D01*
X100000000Y-50000000D02*
X100000000Y-72750000D01*
X106250000Y-75500000D02*
X106250000Y-79000000D01*
X100000000Y-72750000D02*
X102750000Y-72750000D01*
X104000000Y-72750000D02*
X100000000Y-72750000D01*
X106250000Y-75500000D02*
G75*
G03X104000000Y-72750000I-2500000J250000D01*
G01*
X100000000Y-50500000D02*
X100000000Y-50000000D01*
X142500000Y-79000000D02*
X142500000Y-50500000D01*
D13*
X107750000Y-62250000D03*
X107750000Y-59750000D03*
X114250000Y-62250000D03*
X114250000Y-59750000D03*
D14*
X122500000Y-59450000D03*
X122500000Y-57550000D03*
D15*
X116450000Y-70250000D03*
X114550000Y-70250000D03*
D16*
X125000000Y-58990000D03*
X125000000Y-60990000D03*
X125000000Y-62990000D03*
X125000000Y-64990000D03*
X125000000Y-66990000D03*
X125000000Y-68990000D03*
D17*
X140750000Y-56000000D03*
D18*
X138750000Y-56000000D03*
X136750000Y-56000000D03*
X134750000Y-56000000D03*
X132750000Y-56000000D03*
X130750000Y-56000000D03*
X128750000Y-56000000D03*
X126750000Y-56000000D03*
X126750000Y-72000000D03*
X128750000Y-72000000D03*
X130750000Y-72000000D03*
X132750000Y-72000000D03*
X134750000Y-72000000D03*
X136750000Y-72000000D03*
X138750000Y-72000000D03*
X140750000Y-72000000D03*
D19*
X109900000Y-60300000D03*
X109900000Y-61250000D03*
X109900000Y-62200000D03*
X112100000Y-62200000D03*
X112100000Y-60300000D03*
D20*
X104062540Y-62924100D03*
X104062540Y-63574100D03*
X104062540Y-64224100D03*
X104062540Y-64874100D03*
X104062540Y-65524100D03*
D21*
X104062540Y-61724100D03*
X104062540Y-66724100D03*
D22*
X101362540Y-60724100D03*
X101362540Y-67724100D03*
D23*
X107500000Y-54250000D03*
D24*
X107500000Y-51710000D03*
X104960000Y-54250000D03*
X104960000Y-51710000D03*
X102420000Y-54250000D03*
X102420000Y-51710000D03*
D25*
X107100000Y-56750000D03*
X104900000Y-56750000D03*
D26*
X134750000Y-51150000D03*
X134750000Y-53350000D03*
D25*
X128850000Y-74750000D03*
X126650000Y-74750000D03*
D26*
X136750000Y-51150000D03*
X136750000Y-53350000D03*
D25*
X116600000Y-68500000D03*
X114400000Y-68500000D03*
D27*
X108499760Y-72500000D03*
D28*
X110498740Y-72500000D03*
X112500260Y-72500000D03*
X114499240Y-72500000D03*
X116500760Y-72500000D03*
X118499740Y-72500000D03*
X120501260Y-72500000D03*
X122500240Y-72500000D03*
D29*
X131300000Y-67100000D03*
X131400000Y-59900000D03*
X109900000Y-61250000D03*
X122500000Y-59450000D03*
X107250000Y-63000000D03*
X108250000Y-63000000D03*
X107750000Y-62250000D03*
X114250000Y-62250000D03*
X113750000Y-63000000D03*
X114750000Y-63000000D03*
X127250000Y-70750000D03*
X126250000Y-70750000D03*
X134750000Y-53350000D03*
X122500000Y-52500000D03*
X140750000Y-68250000D03*
X105000000Y-56750000D03*
X141250000Y-69000000D03*
X141750000Y-71000000D03*
D30*
X104062540Y-65524100D02*
X104124100Y-65524100D01*
X104124100Y-65524100D02*
X104300000Y-65700000D01*
X104300000Y-65700000D02*
X104300000Y-66486640D01*
X104300000Y-66486640D02*
X104062540Y-66724100D01*
X102420000Y-54250000D02*
X101362540Y-55307460D01*
X101362540Y-55307460D02*
X101362540Y-60724100D01*
X101362540Y-67724100D02*
X103075900Y-67724100D01*
X103075900Y-67724100D02*
X104062540Y-66737460D01*
X104062540Y-66737460D02*
X104062540Y-66724100D01*
X101362540Y-60724100D02*
X101362540Y-55307460D01*
X104062540Y-65549100D02*
X104062540Y-66749100D01*
X107750000Y-62250000D02*
X107750000Y-62500000D01*
X108250000Y-63000000D02*
X107750000Y-62500000D01*
X107750000Y-62500000D02*
X107750000Y-62250000D01*
X107750000Y-62250000D02*
X107750000Y-62500000D01*
X107750000Y-62250000D02*
X107750000Y-62500000D01*
X107750000Y-62250000D02*
X107750000Y-62500000D01*
X107750000Y-62250000D02*
X107750000Y-62500000D01*
X114250000Y-62250000D02*
X114250000Y-62500000D01*
X114250000Y-62500000D02*
X113750000Y-63000000D01*
X114250000Y-62500000D02*
X114750000Y-63000000D01*
X126750000Y-72000000D02*
X126750000Y-71250000D01*
X126750000Y-71250000D02*
X127250000Y-70750000D01*
X126750000Y-71250000D02*
X126250000Y-70750000D01*
X107750000Y-62250000D02*
X107750000Y-62500000D01*
X109900000Y-61250000D02*
X108750000Y-61250000D01*
X108750000Y-61250000D02*
X107750000Y-62250000D01*
D31*
X109900000Y-62200000D02*
X109900000Y-71099760D01*
X109900000Y-71099760D02*
X108499760Y-72500000D01*
D30*
X104062540Y-62949100D02*
X104550900Y-62949100D01*
X104550900Y-62949100D02*
X107750000Y-59750000D01*
D31*
X109900000Y-60300000D02*
X108300000Y-60300000D01*
D30*
X108300000Y-60300000D02*
X107750000Y-59750000D01*
X107500000Y-51710000D02*
X107810000Y-51710000D01*
X107810000Y-51710000D02*
X109700000Y-53600000D01*
X107500000Y-51710000D02*
X107500000Y-51750000D01*
X107500000Y-51750000D02*
X109500000Y-53750000D01*
X116600000Y-68500000D02*
X116600000Y-60900000D01*
X116600000Y-60900000D02*
X117000000Y-60500000D01*
X136750000Y-51150000D02*
X134750000Y-51150000D01*
X134750000Y-51150000D02*
X132400000Y-53500000D01*
X132400000Y-53500000D02*
X126800000Y-53500000D01*
X126800000Y-53500000D02*
X126750000Y-53550000D01*
X126750000Y-53550000D02*
X126750000Y-56000000D01*
X139400000Y-58200000D02*
X138000000Y-58200000D01*
X140750000Y-56000000D02*
X140750000Y-56850000D01*
X140750000Y-56850000D02*
X139400000Y-58200000D01*
X138000000Y-58200000D02*
X136200000Y-58200000D01*
X136200000Y-58200000D02*
X134750000Y-56750000D01*
X134750000Y-56750000D02*
X134750000Y-56000000D01*
X134750000Y-56000000D02*
X134750000Y-53350000D01*
X103750000Y-50500000D02*
X102540000Y-51710000D01*
X120500000Y-50500000D02*
X103750000Y-50500000D01*
X122500000Y-52500000D02*
X120500000Y-50500000D01*
X102540000Y-51710000D02*
X102420000Y-51710000D01*
X136750000Y-56000000D02*
X136750000Y-53350000D01*
X120501260Y-72500000D02*
X120501260Y-68498740D01*
X128750000Y-63750000D02*
X128750000Y-56000000D01*
X126500000Y-66000000D02*
X128750000Y-63750000D01*
X123000000Y-66000000D02*
X126500000Y-66000000D01*
X120501260Y-68498740D02*
X123000000Y-66000000D01*
X128750000Y-72000000D02*
X128750000Y-74650000D01*
X128750000Y-74650000D02*
X128850000Y-74750000D01*
X104900000Y-56750000D02*
X104900000Y-56400000D01*
X104900000Y-56400000D02*
X103750000Y-55250000D01*
X103750000Y-52920000D02*
X104960000Y-51710000D01*
X103750000Y-55250000D02*
X103750000Y-52920000D01*
X138750000Y-70250000D02*
X140750000Y-68250000D01*
X134000000Y-70250000D02*
X138750000Y-70250000D01*
X132750000Y-71500000D02*
X134000000Y-70250000D01*
X105000000Y-56750000D02*
X104900000Y-56750000D01*
X132750000Y-72000000D02*
X132750000Y-71500000D01*
X114550000Y-70250000D02*
X114550000Y-68650000D01*
X114550000Y-68650000D02*
X114400000Y-68500000D01*
X114550000Y-70250000D02*
X114550000Y-72449240D01*
X114550000Y-72449240D02*
X114499240Y-72500000D01*
X134750000Y-72000000D02*
X134750000Y-73000000D01*
X134750000Y-73000000D02*
X131250000Y-76500000D01*
X131250000Y-76500000D02*
X118499240Y-76500000D01*
X118499240Y-76500000D02*
X114550000Y-72550760D01*
X114550000Y-72550760D02*
X114550000Y-68650000D01*
X114550000Y-68650000D02*
X114400000Y-68500000D01*
X136750000Y-72000000D02*
X136750000Y-72750000D01*
X136750000Y-72750000D02*
X132000000Y-77500000D01*
X132000000Y-77500000D02*
X115498740Y-77500000D01*
X115498740Y-77500000D02*
X110498740Y-72500000D01*
X138750000Y-71500000D02*
X141250000Y-69000000D01*
X138750000Y-72000000D02*
X138750000Y-71500000D01*
X140750000Y-72000000D02*
X141750000Y-71000000D01*
D10*
G36*
X115525000Y-52750000D02*
X115637278Y-53314458D01*
X115957017Y-53792983D01*
X116435542Y-54112722D01*
X117000000Y-54225000D01*
X117564458Y-54112722D01*
X118042983Y-53792983D01*
X118362722Y-53314458D01*
X118475000Y-52750000D01*
X118435217Y-52550000D01*
X121949956Y-52550000D01*
X121949905Y-52608922D01*
X122033461Y-52811143D01*
X122188043Y-52965995D01*
X122390118Y-53049904D01*
X122608922Y-53050095D01*
X122811143Y-52966539D01*
X122965995Y-52811957D01*
X123049904Y-52609882D01*
X123049956Y-52550000D01*
X127700000Y-52550000D01*
X127700000Y-57700000D01*
X120750000Y-57700000D01*
X120730866Y-57703806D01*
X120714645Y-57714645D01*
X117479290Y-60950000D01*
X111300000Y-60950000D01*
X111300000Y-57500000D01*
X111296194Y-57480866D01*
X111285355Y-57464645D01*
X111269134Y-57453806D01*
X111250000Y-57450000D01*
X105550000Y-57450000D01*
X105550000Y-57444951D01*
X105597545Y-57435494D01*
X105680239Y-57380239D01*
X105735494Y-57297545D01*
X105754897Y-57200000D01*
X105754897Y-56300000D01*
X105735494Y-56202455D01*
X105680239Y-56119761D01*
X105597545Y-56064506D01*
X105550000Y-56055049D01*
X105550000Y-55191172D01*
X105747434Y-55059251D01*
X105988832Y-54697973D01*
X106073600Y-54271817D01*
X106073600Y-54228183D01*
X105988832Y-53802027D01*
X105820433Y-53550000D01*
X106381503Y-53550000D01*
X106381503Y-55113600D01*
X106400906Y-55211145D01*
X106456161Y-55293839D01*
X106538855Y-55349094D01*
X106636400Y-55368497D01*
X108363600Y-55368497D01*
X108461145Y-55349094D01*
X108543839Y-55293839D01*
X108599094Y-55211145D01*
X108618497Y-55113600D01*
X108618497Y-53550000D01*
X113250000Y-53550000D01*
X113269134Y-53546194D01*
X113285355Y-53535355D01*
X114270710Y-52550000D01*
X115564783Y-52550000D01*
X115525000Y-52750000D01*
X115525000Y-52750000D01*
G37*
X115525000Y-52750000D02*
X115637278Y-53314458D01*
X115957017Y-53792983D01*
X116435542Y-54112722D01*
X117000000Y-54225000D01*
X117564458Y-54112722D01*
X118042983Y-53792983D01*
X118362722Y-53314458D01*
X118475000Y-52750000D01*
X118435217Y-52550000D01*
X121949956Y-52550000D01*
X121949905Y-52608922D01*
X122033461Y-52811143D01*
X122188043Y-52965995D01*
X122390118Y-53049904D01*
X122608922Y-53050095D01*
X122811143Y-52966539D01*
X122965995Y-52811957D01*
X123049904Y-52609882D01*
X123049956Y-52550000D01*
X127700000Y-52550000D01*
X127700000Y-57700000D01*
X120750000Y-57700000D01*
X120730866Y-57703806D01*
X120714645Y-57714645D01*
X117479290Y-60950000D01*
X111300000Y-60950000D01*
X111300000Y-57500000D01*
X111296194Y-57480866D01*
X111285355Y-57464645D01*
X111269134Y-57453806D01*
X111250000Y-57450000D01*
X105550000Y-57450000D01*
X105550000Y-57444951D01*
X105597545Y-57435494D01*
X105680239Y-57380239D01*
X105735494Y-57297545D01*
X105754897Y-57200000D01*
X105754897Y-56300000D01*
X105735494Y-56202455D01*
X105680239Y-56119761D01*
X105597545Y-56064506D01*
X105550000Y-56055049D01*
X105550000Y-55191172D01*
X105747434Y-55059251D01*
X105988832Y-54697973D01*
X106073600Y-54271817D01*
X106073600Y-54228183D01*
X105988832Y-53802027D01*
X105820433Y-53550000D01*
X106381503Y-53550000D01*
X106381503Y-55113600D01*
X106400906Y-55211145D01*
X106456161Y-55293839D01*
X106538855Y-55349094D01*
X106636400Y-55368497D01*
X108363600Y-55368497D01*
X108461145Y-55349094D01*
X108543839Y-55293839D01*
X108599094Y-55211145D01*
X108618497Y-55113600D01*
X108618497Y-53550000D01*
X113250000Y-53550000D01*
X113269134Y-53546194D01*
X113285355Y-53535355D01*
X114270710Y-52550000D01*
X115564783Y-52550000D01*
X115525000Y-52750000D01*
G36*
X142200000Y-70672289D02*
X142061957Y-70534005D01*
X141859882Y-70450096D01*
X141641078Y-70449905D01*
X141438857Y-70533461D01*
X141284005Y-70688043D01*
X141268826Y-70724598D01*
X141056147Y-70582489D01*
X140750000Y-70521593D01*
X140443853Y-70582489D01*
X140184315Y-70755908D01*
X140010896Y-71015446D01*
X139950000Y-71321593D01*
X139950000Y-72678407D01*
X140010896Y-72984554D01*
X140184315Y-73244092D01*
X140443853Y-73417511D01*
X140750000Y-73478407D01*
X141056147Y-73417511D01*
X141315685Y-73244092D01*
X141489104Y-72984554D01*
X141550000Y-72678407D01*
X141550000Y-71730330D01*
X141730347Y-71549983D01*
X141858922Y-71550095D01*
X142061143Y-71466539D01*
X142200000Y-71327924D01*
X142200000Y-78700000D01*
X106800000Y-78700000D01*
X106800000Y-74250000D01*
X106796194Y-74230866D01*
X106785355Y-74214645D01*
X105035355Y-72464645D01*
X105019134Y-72453806D01*
X105000000Y-72450000D01*
X100225000Y-72450000D01*
X100225000Y-68328692D01*
X100267819Y-68407422D01*
X100591713Y-68669101D01*
X100991092Y-68786912D01*
X101158540Y-68649415D01*
X101158540Y-68150000D01*
X101566540Y-68150000D01*
X101566540Y-68649415D01*
X101733988Y-68786912D01*
X102133367Y-68669101D01*
X102457261Y-68407422D01*
X102630992Y-68087990D01*
X102533099Y-67928100D01*
X102152830Y-67928100D01*
X102169552Y-67903073D01*
X102200000Y-67750000D01*
X102169552Y-67596927D01*
X102118218Y-67520100D01*
X102533099Y-67520100D01*
X102535224Y-67516629D01*
X103558511Y-67516629D01*
X103604961Y-67700969D01*
X104013624Y-67801717D01*
X104429734Y-67738407D01*
X104520119Y-67700969D01*
X104566569Y-67516629D01*
X104062540Y-67012600D01*
X103558511Y-67516629D01*
X102535224Y-67516629D01*
X102630992Y-67360210D01*
X102457261Y-67040778D01*
X102133367Y-66779099D01*
X101733988Y-66661288D01*
X101566540Y-66798785D01*
X101566540Y-67350000D01*
X101158540Y-67350000D01*
X101158540Y-66798785D01*
X100991092Y-66661288D01*
X100591713Y-66779099D01*
X100267819Y-67040778D01*
X100225000Y-67119508D01*
X100225000Y-65763600D01*
X102829540Y-65763600D01*
X102829540Y-65835093D01*
X102914491Y-66040182D01*
X103071458Y-66197150D01*
X103180965Y-66242509D01*
X103085671Y-66266521D01*
X102984923Y-66675184D01*
X103048233Y-67091294D01*
X103085671Y-67181679D01*
X103270011Y-67228129D01*
X103774040Y-66724100D01*
X103759898Y-66709958D01*
X104048398Y-66421458D01*
X104062540Y-66435600D01*
X104076682Y-66421458D01*
X104365182Y-66709958D01*
X104351040Y-66724100D01*
X104855069Y-67228129D01*
X105039409Y-67181679D01*
X105140157Y-66773016D01*
X105076847Y-66356906D01*
X105039409Y-66266521D01*
X104944115Y-66242509D01*
X105053622Y-66197150D01*
X105210589Y-66040182D01*
X105295540Y-65835093D01*
X105295540Y-65763600D01*
X105156040Y-65624100D01*
X104266540Y-65624100D01*
X104266540Y-65684716D01*
X104111456Y-65646483D01*
X103858540Y-65684963D01*
X103858540Y-65624100D01*
X102969040Y-65624100D01*
X102829540Y-65763600D01*
X100225000Y-65763600D01*
X100225000Y-61328692D01*
X100267819Y-61407422D01*
X100591713Y-61669101D01*
X100991092Y-61786912D01*
X101158540Y-61649415D01*
X101158540Y-61150000D01*
X101566540Y-61150000D01*
X101566540Y-61649415D01*
X101733988Y-61786912D01*
X102133367Y-61669101D01*
X102450000Y-61413288D01*
X102450000Y-64000000D01*
X102453806Y-64019134D01*
X102464645Y-64035355D01*
X102480866Y-64046194D01*
X102500000Y-64050000D01*
X103132643Y-64050000D01*
X103132643Y-64424100D01*
X103152046Y-64521645D01*
X103170391Y-64549100D01*
X103152046Y-64576555D01*
X103132643Y-64674100D01*
X103132643Y-64825707D01*
X103071458Y-64851050D01*
X102914491Y-65008018D01*
X102829540Y-65213107D01*
X102829540Y-65284600D01*
X102969040Y-65424100D01*
X103858540Y-65424100D01*
X103858540Y-65328997D01*
X104266540Y-65328997D01*
X104266540Y-65424100D01*
X105156040Y-65424100D01*
X105230140Y-65350000D01*
X109275000Y-65350000D01*
X109275000Y-70840877D01*
X108720403Y-71395473D01*
X107900320Y-71395473D01*
X107802775Y-71414876D01*
X107720081Y-71470131D01*
X107664826Y-71552825D01*
X107645423Y-71650370D01*
X107645423Y-73349630D01*
X107664826Y-73447175D01*
X107720081Y-73529869D01*
X107802775Y-73585124D01*
X107900320Y-73604527D01*
X109099200Y-73604527D01*
X109196745Y-73585124D01*
X109279439Y-73529869D01*
X109334694Y-73447175D01*
X109354097Y-73349630D01*
X109354097Y-72529547D01*
X109649300Y-72234343D01*
X109649300Y-72771733D01*
X109713960Y-73096800D01*
X109898095Y-73372378D01*
X110173673Y-73556513D01*
X110498740Y-73621173D01*
X110823807Y-73556513D01*
X110944367Y-73475957D01*
X115233575Y-77765165D01*
X115355234Y-77846455D01*
X115498740Y-77875000D01*
X132000000Y-77875000D01*
X132143507Y-77846455D01*
X132265165Y-77765165D01*
X133780330Y-76250000D01*
X135250245Y-76250000D01*
X135364407Y-76823931D01*
X135689513Y-77310487D01*
X136176069Y-77635593D01*
X136750000Y-77749755D01*
X137323931Y-77635593D01*
X137810487Y-77310487D01*
X138135593Y-76823931D01*
X138249755Y-76250000D01*
X138135593Y-75676069D01*
X137810487Y-75189513D01*
X137323931Y-74864407D01*
X136750000Y-74750245D01*
X136176069Y-74864407D01*
X135689513Y-75189513D01*
X135364407Y-75676069D01*
X135250245Y-76250000D01*
X133780330Y-76250000D01*
X136584786Y-73445544D01*
X136750000Y-73478407D01*
X137056147Y-73417511D01*
X137315685Y-73244092D01*
X137489104Y-72984554D01*
X137550000Y-72678407D01*
X137550000Y-71321593D01*
X137489104Y-71015446D01*
X137315685Y-70755908D01*
X137119769Y-70625000D01*
X138380231Y-70625000D01*
X138184315Y-70755908D01*
X138010896Y-71015446D01*
X137950000Y-71321593D01*
X137950000Y-72678407D01*
X138010896Y-72984554D01*
X138184315Y-73244092D01*
X138443853Y-73417511D01*
X138750000Y-73478407D01*
X139056147Y-73417511D01*
X139315685Y-73244092D01*
X139489104Y-72984554D01*
X139550000Y-72678407D01*
X139550000Y-71321593D01*
X139534859Y-71245471D01*
X141230347Y-69549983D01*
X141358922Y-69550095D01*
X141561143Y-69466539D01*
X141715995Y-69311957D01*
X141799904Y-69109882D01*
X141800095Y-68891078D01*
X141716539Y-68688857D01*
X141561957Y-68534005D01*
X141359882Y-68450096D01*
X141262479Y-68450011D01*
X141299904Y-68359882D01*
X141300095Y-68141078D01*
X141216539Y-67938857D01*
X141061957Y-67784005D01*
X140859882Y-67700096D01*
X140641078Y-67699905D01*
X140438857Y-67783461D01*
X140284005Y-67938043D01*
X140200096Y-68140118D01*
X140199983Y-68269687D01*
X138594670Y-69875000D01*
X134000000Y-69875000D01*
X133856493Y-69903545D01*
X133734835Y-69984835D01*
X133104723Y-70614947D01*
X133056147Y-70582489D01*
X132750000Y-70521593D01*
X132443853Y-70582489D01*
X132184315Y-70755908D01*
X132010896Y-71015446D01*
X131950000Y-71321593D01*
X131950000Y-72678407D01*
X132010896Y-72984554D01*
X132184315Y-73244092D01*
X132443853Y-73417511D01*
X132750000Y-73478407D01*
X133056147Y-73417511D01*
X133315685Y-73244092D01*
X133489104Y-72984554D01*
X133550000Y-72678407D01*
X133550000Y-71321593D01*
X133534859Y-71245471D01*
X134155330Y-70625000D01*
X134380231Y-70625000D01*
X134184315Y-70755908D01*
X134010896Y-71015446D01*
X133950000Y-71321593D01*
X133950000Y-72678407D01*
X134010896Y-72984554D01*
X134100706Y-73118964D01*
X131094670Y-76125000D01*
X118654570Y-76125000D01*
X117623070Y-75093500D01*
X125492000Y-75093500D01*
X125492000Y-75310993D01*
X125576951Y-75516082D01*
X125733918Y-75673050D01*
X125939007Y-75758000D01*
X126306500Y-75758000D01*
X126446000Y-75618500D01*
X126446000Y-74954000D01*
X126854000Y-74954000D01*
X126854000Y-75618500D01*
X126993500Y-75758000D01*
X127360993Y-75758000D01*
X127566082Y-75673050D01*
X127723049Y-75516082D01*
X127808000Y-75310993D01*
X127808000Y-75093500D01*
X127668500Y-74954000D01*
X126854000Y-74954000D01*
X126446000Y-74954000D01*
X125631500Y-74954000D01*
X125492000Y-75093500D01*
X117623070Y-75093500D01*
X116718577Y-74189007D01*
X125492000Y-74189007D01*
X125492000Y-74406500D01*
X125631500Y-74546000D01*
X126446000Y-74546000D01*
X126446000Y-73881500D01*
X126854000Y-73881500D01*
X126854000Y-74546000D01*
X127668500Y-74546000D01*
X127808000Y-74406500D01*
X127808000Y-74189007D01*
X127723049Y-73983918D01*
X127566082Y-73826950D01*
X127360993Y-73742000D01*
X126993500Y-73742000D01*
X126854000Y-73881500D01*
X126446000Y-73881500D01*
X126306500Y-73742000D01*
X125939007Y-73742000D01*
X125733918Y-73826950D01*
X125576951Y-73983918D01*
X125492000Y-74189007D01*
X116718577Y-74189007D01*
X116284017Y-73754447D01*
X116296760Y-73747479D01*
X116296760Y-72704000D01*
X116704760Y-72704000D01*
X116704760Y-73747479D01*
X116880477Y-73843571D01*
X117220841Y-73662713D01*
X117500250Y-73335250D01*
X117779659Y-73662713D01*
X118120023Y-73843571D01*
X118295740Y-73747479D01*
X118295740Y-72704000D01*
X116704760Y-72704000D01*
X116296760Y-72704000D01*
X116276760Y-72704000D01*
X116276760Y-72296000D01*
X116296760Y-72296000D01*
X116296760Y-71252521D01*
X116128819Y-71160681D01*
X116246000Y-71043500D01*
X116246000Y-70437500D01*
X116654000Y-70437500D01*
X116654000Y-71043500D01*
X116793500Y-71183000D01*
X116831888Y-71183000D01*
X116704760Y-71252521D01*
X116704760Y-72296000D01*
X118295740Y-72296000D01*
X118295740Y-71252521D01*
X118120023Y-71156429D01*
X117779659Y-71337287D01*
X117500250Y-71664750D01*
X117220841Y-71337287D01*
X116930482Y-71183000D01*
X117160993Y-71183000D01*
X117366082Y-71098050D01*
X117523049Y-70941082D01*
X117608000Y-70735993D01*
X117608000Y-70577000D01*
X117468500Y-70437500D01*
X116654000Y-70437500D01*
X116246000Y-70437500D01*
X116226000Y-70437500D01*
X116226000Y-70062500D01*
X116246000Y-70062500D01*
X116246000Y-69456500D01*
X116654000Y-69456500D01*
X116654000Y-70062500D01*
X117468500Y-70062500D01*
X117608000Y-69923000D01*
X117608000Y-69764007D01*
X117523049Y-69558918D01*
X117366082Y-69401950D01*
X117160993Y-69317000D01*
X116793500Y-69317000D01*
X116654000Y-69456500D01*
X116246000Y-69456500D01*
X116106500Y-69317000D01*
X115739007Y-69317000D01*
X115533918Y-69401950D01*
X115376951Y-69558918D01*
X115322754Y-69689760D01*
X115247545Y-69639506D01*
X115150000Y-69620103D01*
X114925000Y-69620103D01*
X114925000Y-69204897D01*
X115000000Y-69204897D01*
X115097545Y-69185494D01*
X115180239Y-69130239D01*
X115235494Y-69047545D01*
X115254897Y-68950000D01*
X115254897Y-68050000D01*
X115235494Y-67952455D01*
X115180239Y-67869761D01*
X115097545Y-67814506D01*
X115000000Y-67795103D01*
X113800000Y-67795103D01*
X113702455Y-67814506D01*
X113619761Y-67869761D01*
X113564506Y-67952455D01*
X113545103Y-68050000D01*
X113545103Y-68950000D01*
X113564506Y-69047545D01*
X113619761Y-69130239D01*
X113702455Y-69185494D01*
X113800000Y-69204897D01*
X114175000Y-69204897D01*
X114175000Y-69620103D01*
X113950000Y-69620103D01*
X113852455Y-69639506D01*
X113769761Y-69694761D01*
X113714506Y-69777455D01*
X113695103Y-69875000D01*
X113695103Y-70625000D01*
X113714506Y-70722545D01*
X113769761Y-70805239D01*
X113852455Y-70860494D01*
X113950000Y-70879897D01*
X114175000Y-70879897D01*
X114175000Y-71443322D01*
X114174173Y-71443487D01*
X113898595Y-71627622D01*
X113714460Y-71903200D01*
X113649800Y-72228267D01*
X113649800Y-72295998D01*
X113522260Y-72295998D01*
X113654685Y-72113733D01*
X113514735Y-71682312D01*
X113220341Y-71337287D01*
X112879977Y-71156429D01*
X112704260Y-71252521D01*
X112704260Y-72296000D01*
X112724260Y-72296000D01*
X112724260Y-72704000D01*
X112704260Y-72704000D01*
X112704260Y-73747479D01*
X112879977Y-73843571D01*
X113220341Y-73662713D01*
X113514735Y-73317688D01*
X113654685Y-72886267D01*
X113522260Y-72704002D01*
X113649800Y-72704002D01*
X113649800Y-72771733D01*
X113714460Y-73096800D01*
X113898595Y-73372378D01*
X114174173Y-73556513D01*
X114499240Y-73621173D01*
X114824307Y-73556513D01*
X114944867Y-73475957D01*
X118234075Y-76765165D01*
X118355734Y-76846455D01*
X118499240Y-76875000D01*
X131250000Y-76875000D01*
X131393507Y-76846455D01*
X131515165Y-76765165D01*
X134814816Y-73465514D01*
X135056147Y-73417511D01*
X135315685Y-73244092D01*
X135489104Y-72984554D01*
X135550000Y-72678407D01*
X135550000Y-71321593D01*
X135489104Y-71015446D01*
X135315685Y-70755908D01*
X135119769Y-70625000D01*
X136380231Y-70625000D01*
X136184315Y-70755908D01*
X136010896Y-71015446D01*
X135950000Y-71321593D01*
X135950000Y-72678407D01*
X136006619Y-72963051D01*
X131844670Y-77125000D01*
X115654070Y-77125000D01*
X112283517Y-73754447D01*
X112296260Y-73747479D01*
X112296260Y-72704000D01*
X112276260Y-72704000D01*
X112276260Y-72296000D01*
X112296260Y-72296000D01*
X112296260Y-71252521D01*
X112120543Y-71156429D01*
X111780179Y-71337287D01*
X111485785Y-71682312D01*
X111345835Y-72113733D01*
X111478260Y-72295998D01*
X111348180Y-72295998D01*
X111348180Y-72228267D01*
X111283520Y-71903200D01*
X111099385Y-71627622D01*
X110823807Y-71443487D01*
X110498740Y-71378827D01*
X110443419Y-71389831D01*
X110477425Y-71338938D01*
X110525000Y-71099760D01*
X110525000Y-65350000D01*
X111275000Y-65350000D01*
X111294134Y-65346194D01*
X111310355Y-65335355D01*
X111321194Y-65319134D01*
X111325000Y-65300000D01*
X111325000Y-62574755D01*
X111334506Y-62622545D01*
X111389761Y-62705239D01*
X111472455Y-62760494D01*
X111570000Y-62779897D01*
X112630000Y-62779897D01*
X112727545Y-62760494D01*
X112810239Y-62705239D01*
X112865494Y-62622545D01*
X112871271Y-62593500D01*
X113067000Y-62593500D01*
X113067000Y-63110993D01*
X113151950Y-63316082D01*
X113308918Y-63473049D01*
X113514007Y-63558000D01*
X113906500Y-63558000D01*
X114046000Y-63418500D01*
X114046000Y-62454000D01*
X114454000Y-62454000D01*
X114454000Y-63418500D01*
X114593500Y-63558000D01*
X114985993Y-63558000D01*
X115191082Y-63473049D01*
X115348050Y-63316082D01*
X115433000Y-63110993D01*
X115433000Y-62593500D01*
X115293500Y-62454000D01*
X114454000Y-62454000D01*
X114046000Y-62454000D01*
X113206500Y-62454000D01*
X113067000Y-62593500D01*
X112871271Y-62593500D01*
X112884897Y-62525000D01*
X112884897Y-62050000D01*
X116225000Y-62050000D01*
X116225000Y-67795103D01*
X116000000Y-67795103D01*
X115902455Y-67814506D01*
X115819761Y-67869761D01*
X115764506Y-67952455D01*
X115745103Y-68050000D01*
X115745103Y-68950000D01*
X115764506Y-69047545D01*
X115819761Y-69130239D01*
X115902455Y-69185494D01*
X116000000Y-69204897D01*
X117200000Y-69204897D01*
X117297545Y-69185494D01*
X117380239Y-69130239D01*
X117435494Y-69047545D01*
X117454897Y-68950000D01*
X117454897Y-68050000D01*
X117435494Y-67952455D01*
X117380239Y-67869761D01*
X117297545Y-67814506D01*
X117200000Y-67795103D01*
X116975000Y-67795103D01*
X116975000Y-62990000D01*
X123521593Y-62990000D01*
X123582489Y-63296147D01*
X123755908Y-63555685D01*
X124015446Y-63729104D01*
X124321593Y-63790000D01*
X125678407Y-63790000D01*
X125984554Y-63729104D01*
X126244092Y-63555685D01*
X126417511Y-63296147D01*
X126478407Y-62990000D01*
X126417511Y-62683853D01*
X126244092Y-62424315D01*
X125984554Y-62250896D01*
X125678407Y-62190000D01*
X124321593Y-62190000D01*
X124015446Y-62250896D01*
X123755908Y-62424315D01*
X123582489Y-62683853D01*
X123521593Y-62990000D01*
X116975000Y-62990000D01*
X116975000Y-62050000D01*
X118250000Y-62050000D01*
X118269134Y-62046194D01*
X118285355Y-62035355D01*
X119330710Y-60990000D01*
X123521593Y-60990000D01*
X123582489Y-61296147D01*
X123755908Y-61555685D01*
X124015446Y-61729104D01*
X124321593Y-61790000D01*
X125678407Y-61790000D01*
X125984554Y-61729104D01*
X126244092Y-61555685D01*
X126417511Y-61296147D01*
X126478407Y-60990000D01*
X126417511Y-60683853D01*
X126244092Y-60424315D01*
X125984554Y-60250896D01*
X125678407Y-60190000D01*
X124321593Y-60190000D01*
X124015446Y-60250896D01*
X123755908Y-60424315D01*
X123582489Y-60683853D01*
X123521593Y-60990000D01*
X119330710Y-60990000D01*
X120527210Y-59793500D01*
X121567000Y-59793500D01*
X121567000Y-60160993D01*
X121651950Y-60366082D01*
X121808918Y-60523049D01*
X122014007Y-60608000D01*
X122173000Y-60608000D01*
X122312500Y-60468500D01*
X122312500Y-59654000D01*
X122687500Y-59654000D01*
X122687500Y-60468500D01*
X122827000Y-60608000D01*
X122985993Y-60608000D01*
X123191082Y-60523049D01*
X123348050Y-60366082D01*
X123433000Y-60160993D01*
X123433000Y-59793500D01*
X123293500Y-59654000D01*
X122687500Y-59654000D01*
X122312500Y-59654000D01*
X121706500Y-59654000D01*
X121567000Y-59793500D01*
X120527210Y-59793500D01*
X121020710Y-59300000D01*
X123585064Y-59300000D01*
X123755908Y-59555685D01*
X124015446Y-59729104D01*
X124321593Y-59790000D01*
X125678407Y-59790000D01*
X125984554Y-59729104D01*
X126244092Y-59555685D01*
X126414936Y-59300000D01*
X128375000Y-59300000D01*
X128375000Y-63594670D01*
X126344670Y-65625000D01*
X126140356Y-65625000D01*
X126244092Y-65555685D01*
X126417511Y-65296147D01*
X126478407Y-64990000D01*
X126417511Y-64683853D01*
X126244092Y-64424315D01*
X125984554Y-64250896D01*
X125678407Y-64190000D01*
X124321593Y-64190000D01*
X124015446Y-64250896D01*
X123755908Y-64424315D01*
X123582489Y-64683853D01*
X123521593Y-64990000D01*
X123582489Y-65296147D01*
X123755908Y-65555685D01*
X123859644Y-65625000D01*
X123000000Y-65625000D01*
X122856493Y-65653545D01*
X122734835Y-65734835D01*
X120236095Y-68233575D01*
X120154805Y-68355233D01*
X120154071Y-68358922D01*
X120126260Y-68498740D01*
X120126260Y-71476851D01*
X119900615Y-71627622D01*
X119716480Y-71903200D01*
X119651820Y-72228267D01*
X119651820Y-72295998D01*
X119521740Y-72295998D01*
X119654165Y-72113733D01*
X119514215Y-71682312D01*
X119219821Y-71337287D01*
X118879457Y-71156429D01*
X118703740Y-71252521D01*
X118703740Y-72296000D01*
X118723740Y-72296000D01*
X118723740Y-72704000D01*
X118703740Y-72704000D01*
X118703740Y-73747479D01*
X118879457Y-73843571D01*
X119219821Y-73662713D01*
X119514215Y-73317688D01*
X119654165Y-72886267D01*
X119521740Y-72704002D01*
X119651820Y-72704002D01*
X119651820Y-72771733D01*
X119716480Y-73096800D01*
X119900615Y-73372378D01*
X120176193Y-73556513D01*
X120501260Y-73621173D01*
X120826327Y-73556513D01*
X121101905Y-73372378D01*
X121286040Y-73096800D01*
X121350700Y-72771733D01*
X121350700Y-72228267D01*
X121650800Y-72228267D01*
X121650800Y-72771733D01*
X121715460Y-73096800D01*
X121899595Y-73372378D01*
X122175173Y-73556513D01*
X122500240Y-73621173D01*
X122825307Y-73556513D01*
X123100885Y-73372378D01*
X123285020Y-73096800D01*
X123349680Y-72771733D01*
X123349680Y-72228267D01*
X123285020Y-71903200D01*
X123100885Y-71627622D01*
X122825307Y-71443487D01*
X122500240Y-71378827D01*
X122175173Y-71443487D01*
X121899595Y-71627622D01*
X121715460Y-71903200D01*
X121650800Y-72228267D01*
X121350700Y-72228267D01*
X121286040Y-71903200D01*
X121101905Y-71627622D01*
X120876260Y-71476851D01*
X120876260Y-71321593D01*
X127950000Y-71321593D01*
X127950000Y-72678407D01*
X128010896Y-72984554D01*
X128184315Y-73244092D01*
X128375000Y-73371505D01*
X128375000Y-74045103D01*
X128250000Y-74045103D01*
X128152455Y-74064506D01*
X128069761Y-74119761D01*
X128014506Y-74202455D01*
X127995103Y-74300000D01*
X127995103Y-75200000D01*
X128014506Y-75297545D01*
X128069761Y-75380239D01*
X128152455Y-75435494D01*
X128250000Y-75454897D01*
X129450000Y-75454897D01*
X129547545Y-75435494D01*
X129630239Y-75380239D01*
X129685494Y-75297545D01*
X129704897Y-75200000D01*
X129704897Y-74300000D01*
X129685494Y-74202455D01*
X129630239Y-74119761D01*
X129547545Y-74064506D01*
X129450000Y-74045103D01*
X129125000Y-74045103D01*
X129125000Y-73371505D01*
X129315685Y-73244092D01*
X129489104Y-72984554D01*
X129550000Y-72678407D01*
X129550000Y-71321593D01*
X129950000Y-71321593D01*
X129950000Y-72678407D01*
X130010896Y-72984554D01*
X130184315Y-73244092D01*
X130443853Y-73417511D01*
X130750000Y-73478407D01*
X131056147Y-73417511D01*
X131315685Y-73244092D01*
X131489104Y-72984554D01*
X131550000Y-72678407D01*
X131550000Y-71321593D01*
X131489104Y-71015446D01*
X131315685Y-70755908D01*
X131056147Y-70582489D01*
X130750000Y-70521593D01*
X130443853Y-70582489D01*
X130184315Y-70755908D01*
X130010896Y-71015446D01*
X129950000Y-71321593D01*
X129550000Y-71321593D01*
X129489104Y-71015446D01*
X129315685Y-70755908D01*
X129056147Y-70582489D01*
X128750000Y-70521593D01*
X128443853Y-70582489D01*
X128184315Y-70755908D01*
X128010896Y-71015446D01*
X127950000Y-71321593D01*
X120876260Y-71321593D01*
X120876260Y-68990000D01*
X123521593Y-68990000D01*
X123582489Y-69296147D01*
X123755908Y-69555685D01*
X124015446Y-69729104D01*
X124321593Y-69790000D01*
X125678407Y-69790000D01*
X125984554Y-69729104D01*
X126244092Y-69555685D01*
X126417511Y-69296147D01*
X126478407Y-68990000D01*
X126417511Y-68683853D01*
X126244092Y-68424315D01*
X125984554Y-68250896D01*
X125678407Y-68190000D01*
X124321593Y-68190000D01*
X124015446Y-68250896D01*
X123755908Y-68424315D01*
X123582489Y-68683853D01*
X123521593Y-68990000D01*
X120876260Y-68990000D01*
X120876260Y-68654070D01*
X123155330Y-66375000D01*
X123829713Y-66375000D01*
X123755908Y-66424315D01*
X123582489Y-66683853D01*
X123521593Y-66990000D01*
X123582489Y-67296147D01*
X123755908Y-67555685D01*
X124015446Y-67729104D01*
X124321593Y-67790000D01*
X125678407Y-67790000D01*
X125984554Y-67729104D01*
X126244092Y-67555685D01*
X126417511Y-67296147D01*
X126434861Y-67208922D01*
X130749905Y-67208922D01*
X130833461Y-67411143D01*
X130988043Y-67565995D01*
X131190118Y-67649904D01*
X131408922Y-67650095D01*
X131611143Y-67566539D01*
X131765995Y-67411957D01*
X131849904Y-67209882D01*
X131850095Y-66991078D01*
X131766539Y-66788857D01*
X131611957Y-66634005D01*
X131409882Y-66550096D01*
X131191078Y-66549905D01*
X130988857Y-66633461D01*
X130834005Y-66788043D01*
X130750096Y-66990118D01*
X130749905Y-67208922D01*
X126434861Y-67208922D01*
X126478407Y-66990000D01*
X126417511Y-66683853D01*
X126244092Y-66424315D01*
X126170287Y-66375000D01*
X126500000Y-66375000D01*
X126643507Y-66346455D01*
X126765165Y-66265165D01*
X129015165Y-64015165D01*
X129096455Y-63893506D01*
X129125000Y-63750000D01*
X129125000Y-60008922D01*
X130849905Y-60008922D01*
X130933461Y-60211143D01*
X131088043Y-60365995D01*
X131290118Y-60449904D01*
X131508922Y-60450095D01*
X131711143Y-60366539D01*
X131865995Y-60211957D01*
X131949904Y-60009882D01*
X131950095Y-59791078D01*
X131866539Y-59588857D01*
X131711957Y-59434005D01*
X131509882Y-59350096D01*
X131291078Y-59349905D01*
X131088857Y-59433461D01*
X130934005Y-59588043D01*
X130850096Y-59790118D01*
X130849905Y-60008922D01*
X129125000Y-60008922D01*
X129125000Y-57371505D01*
X129315685Y-57244092D01*
X129489104Y-56984554D01*
X129550000Y-56678407D01*
X129550000Y-55321593D01*
X129950000Y-55321593D01*
X129950000Y-56678407D01*
X130010896Y-56984554D01*
X130184315Y-57244092D01*
X130443853Y-57417511D01*
X130750000Y-57478407D01*
X131056147Y-57417511D01*
X131315685Y-57244092D01*
X131489104Y-56984554D01*
X131550000Y-56678407D01*
X131550000Y-55321593D01*
X131950000Y-55321593D01*
X131950000Y-56678407D01*
X132010896Y-56984554D01*
X132184315Y-57244092D01*
X132443853Y-57417511D01*
X132750000Y-57478407D01*
X133056147Y-57417511D01*
X133315685Y-57244092D01*
X133489104Y-56984554D01*
X133550000Y-56678407D01*
X133550000Y-55321593D01*
X133950000Y-55321593D01*
X133950000Y-56678407D01*
X134010896Y-56984554D01*
X134184315Y-57244092D01*
X134443853Y-57417511D01*
X134750000Y-57478407D01*
X134915214Y-57445544D01*
X135934835Y-58465165D01*
X136056494Y-58546455D01*
X136200000Y-58575000D01*
X139400000Y-58575000D01*
X139543507Y-58546455D01*
X139665165Y-58465165D01*
X140675433Y-57454897D01*
X141300000Y-57454897D01*
X141397545Y-57435494D01*
X141480239Y-57380239D01*
X141535494Y-57297545D01*
X141554897Y-57200000D01*
X141554897Y-54800000D01*
X141535494Y-54702455D01*
X141480239Y-54619761D01*
X141397545Y-54564506D01*
X141300000Y-54545103D01*
X140200000Y-54545103D01*
X140102455Y-54564506D01*
X140019761Y-54619761D01*
X139964506Y-54702455D01*
X139945103Y-54800000D01*
X139945103Y-57124567D01*
X139244670Y-57825000D01*
X136355330Y-57825000D01*
X135493381Y-56963051D01*
X135550000Y-56678407D01*
X135550000Y-55321593D01*
X135950000Y-55321593D01*
X135950000Y-56678407D01*
X136010896Y-56984554D01*
X136184315Y-57244092D01*
X136443853Y-57417511D01*
X136750000Y-57478407D01*
X137056147Y-57417511D01*
X137315685Y-57244092D01*
X137489104Y-56984554D01*
X137550000Y-56678407D01*
X137550000Y-55321593D01*
X137950000Y-55321593D01*
X137950000Y-56678407D01*
X138010896Y-56984554D01*
X138184315Y-57244092D01*
X138443853Y-57417511D01*
X138750000Y-57478407D01*
X139056147Y-57417511D01*
X139315685Y-57244092D01*
X139489104Y-56984554D01*
X139550000Y-56678407D01*
X139550000Y-55321593D01*
X139489104Y-55015446D01*
X139315685Y-54755908D01*
X139056147Y-54582489D01*
X138750000Y-54521593D01*
X138443853Y-54582489D01*
X138184315Y-54755908D01*
X138010896Y-55015446D01*
X137950000Y-55321593D01*
X137550000Y-55321593D01*
X137489104Y-55015446D01*
X137315685Y-54755908D01*
X137125000Y-54628495D01*
X137125000Y-54204897D01*
X137200000Y-54204897D01*
X137297545Y-54185494D01*
X137380239Y-54130239D01*
X137435494Y-54047545D01*
X137454897Y-53950000D01*
X137454897Y-52750000D01*
X137435494Y-52652455D01*
X137380239Y-52569761D01*
X137297545Y-52514506D01*
X137200000Y-52495103D01*
X136300000Y-52495103D01*
X136202455Y-52514506D01*
X136119761Y-52569761D01*
X136064506Y-52652455D01*
X136045103Y-52750000D01*
X136045103Y-53950000D01*
X136064506Y-54047545D01*
X136119761Y-54130239D01*
X136202455Y-54185494D01*
X136300000Y-54204897D01*
X136375000Y-54204897D01*
X136375000Y-54628495D01*
X136184315Y-54755908D01*
X136010896Y-55015446D01*
X135950000Y-55321593D01*
X135550000Y-55321593D01*
X135489104Y-55015446D01*
X135315685Y-54755908D01*
X135125000Y-54628495D01*
X135125000Y-54204897D01*
X135200000Y-54204897D01*
X135297545Y-54185494D01*
X135380239Y-54130239D01*
X135435494Y-54047545D01*
X135454897Y-53950000D01*
X135454897Y-52750000D01*
X135435494Y-52652455D01*
X135380239Y-52569761D01*
X135297545Y-52514506D01*
X135200000Y-52495103D01*
X134300000Y-52495103D01*
X134202455Y-52514506D01*
X134119761Y-52569761D01*
X134064506Y-52652455D01*
X134045103Y-52750000D01*
X134045103Y-53950000D01*
X134064506Y-54047545D01*
X134119761Y-54130239D01*
X134202455Y-54185494D01*
X134300000Y-54204897D01*
X134375000Y-54204897D01*
X134375000Y-54628495D01*
X134184315Y-54755908D01*
X134010896Y-55015446D01*
X133950000Y-55321593D01*
X133550000Y-55321593D01*
X133489104Y-55015446D01*
X133315685Y-54755908D01*
X133056147Y-54582489D01*
X132750000Y-54521593D01*
X132443853Y-54582489D01*
X132184315Y-54755908D01*
X132010896Y-55015446D01*
X131950000Y-55321593D01*
X131550000Y-55321593D01*
X131489104Y-55015446D01*
X131315685Y-54755908D01*
X131056147Y-54582489D01*
X130750000Y-54521593D01*
X130443853Y-54582489D01*
X130184315Y-54755908D01*
X130010896Y-55015446D01*
X129950000Y-55321593D01*
X129550000Y-55321593D01*
X129489104Y-55015446D01*
X129315685Y-54755908D01*
X129056147Y-54582489D01*
X128800000Y-54531539D01*
X128800000Y-53875000D01*
X132400000Y-53875000D01*
X132543507Y-53846455D01*
X132665165Y-53765165D01*
X134425433Y-52004897D01*
X135200000Y-52004897D01*
X135297545Y-51985494D01*
X135380239Y-51930239D01*
X135435494Y-51847545D01*
X135454897Y-51750000D01*
X135454897Y-51525000D01*
X136045103Y-51525000D01*
X136045103Y-51750000D01*
X136064506Y-51847545D01*
X136119761Y-51930239D01*
X136202455Y-51985494D01*
X136300000Y-52004897D01*
X137200000Y-52004897D01*
X137297545Y-51985494D01*
X137380239Y-51930239D01*
X137435494Y-51847545D01*
X137454897Y-51750000D01*
X137454897Y-50550000D01*
X137435494Y-50452455D01*
X137380239Y-50369761D01*
X137297545Y-50314506D01*
X137224619Y-50300000D01*
X142200000Y-50300000D01*
X142200000Y-70672289D01*
X142200000Y-70672289D01*
G37*
X142200000Y-70672289D02*
X142061957Y-70534005D01*
X141859882Y-70450096D01*
X141641078Y-70449905D01*
X141438857Y-70533461D01*
X141284005Y-70688043D01*
X141268826Y-70724598D01*
X141056147Y-70582489D01*
X140750000Y-70521593D01*
X140443853Y-70582489D01*
X140184315Y-70755908D01*
X140010896Y-71015446D01*
X139950000Y-71321593D01*
X139950000Y-72678407D01*
X140010896Y-72984554D01*
X140184315Y-73244092D01*
X140443853Y-73417511D01*
X140750000Y-73478407D01*
X141056147Y-73417511D01*
X141315685Y-73244092D01*
X141489104Y-72984554D01*
X141550000Y-72678407D01*
X141550000Y-71730330D01*
X141730347Y-71549983D01*
X141858922Y-71550095D01*
X142061143Y-71466539D01*
X142200000Y-71327924D01*
X142200000Y-78700000D01*
X106800000Y-78700000D01*
X106800000Y-74250000D01*
X106796194Y-74230866D01*
X106785355Y-74214645D01*
X105035355Y-72464645D01*
X105019134Y-72453806D01*
X105000000Y-72450000D01*
X100225000Y-72450000D01*
X100225000Y-68328692D01*
X100267819Y-68407422D01*
X100591713Y-68669101D01*
X100991092Y-68786912D01*
X101158540Y-68649415D01*
X101158540Y-68150000D01*
X101566540Y-68150000D01*
X101566540Y-68649415D01*
X101733988Y-68786912D01*
X102133367Y-68669101D01*
X102457261Y-68407422D01*
X102630992Y-68087990D01*
X102533099Y-67928100D01*
X102152830Y-67928100D01*
X102169552Y-67903073D01*
X102200000Y-67750000D01*
X102169552Y-67596927D01*
X102118218Y-67520100D01*
X102533099Y-67520100D01*
X102535224Y-67516629D01*
X103558511Y-67516629D01*
X103604961Y-67700969D01*
X104013624Y-67801717D01*
X104429734Y-67738407D01*
X104520119Y-67700969D01*
X104566569Y-67516629D01*
X104062540Y-67012600D01*
X103558511Y-67516629D01*
X102535224Y-67516629D01*
X102630992Y-67360210D01*
X102457261Y-67040778D01*
X102133367Y-66779099D01*
X101733988Y-66661288D01*
X101566540Y-66798785D01*
X101566540Y-67350000D01*
X101158540Y-67350000D01*
X101158540Y-66798785D01*
X100991092Y-66661288D01*
X100591713Y-66779099D01*
X100267819Y-67040778D01*
X100225000Y-67119508D01*
X100225000Y-65763600D01*
X102829540Y-65763600D01*
X102829540Y-65835093D01*
X102914491Y-66040182D01*
X103071458Y-66197150D01*
X103180965Y-66242509D01*
X103085671Y-66266521D01*
X102984923Y-66675184D01*
X103048233Y-67091294D01*
X103085671Y-67181679D01*
X103270011Y-67228129D01*
X103774040Y-66724100D01*
X103759898Y-66709958D01*
X104048398Y-66421458D01*
X104062540Y-66435600D01*
X104076682Y-66421458D01*
X104365182Y-66709958D01*
X104351040Y-66724100D01*
X104855069Y-67228129D01*
X105039409Y-67181679D01*
X105140157Y-66773016D01*
X105076847Y-66356906D01*
X105039409Y-66266521D01*
X104944115Y-66242509D01*
X105053622Y-66197150D01*
X105210589Y-66040182D01*
X105295540Y-65835093D01*
X105295540Y-65763600D01*
X105156040Y-65624100D01*
X104266540Y-65624100D01*
X104266540Y-65684716D01*
X104111456Y-65646483D01*
X103858540Y-65684963D01*
X103858540Y-65624100D01*
X102969040Y-65624100D01*
X102829540Y-65763600D01*
X100225000Y-65763600D01*
X100225000Y-61328692D01*
X100267819Y-61407422D01*
X100591713Y-61669101D01*
X100991092Y-61786912D01*
X101158540Y-61649415D01*
X101158540Y-61150000D01*
X101566540Y-61150000D01*
X101566540Y-61649415D01*
X101733988Y-61786912D01*
X102133367Y-61669101D01*
X102450000Y-61413288D01*
X102450000Y-64000000D01*
X102453806Y-64019134D01*
X102464645Y-64035355D01*
X102480866Y-64046194D01*
X102500000Y-64050000D01*
X103132643Y-64050000D01*
X103132643Y-64424100D01*
X103152046Y-64521645D01*
X103170391Y-64549100D01*
X103152046Y-64576555D01*
X103132643Y-64674100D01*
X103132643Y-64825707D01*
X103071458Y-64851050D01*
X102914491Y-65008018D01*
X102829540Y-65213107D01*
X102829540Y-65284600D01*
X102969040Y-65424100D01*
X103858540Y-65424100D01*
X103858540Y-65328997D01*
X104266540Y-65328997D01*
X104266540Y-65424100D01*
X105156040Y-65424100D01*
X105230140Y-65350000D01*
X109275000Y-65350000D01*
X109275000Y-70840877D01*
X108720403Y-71395473D01*
X107900320Y-71395473D01*
X107802775Y-71414876D01*
X107720081Y-71470131D01*
X107664826Y-71552825D01*
X107645423Y-71650370D01*
X107645423Y-73349630D01*
X107664826Y-73447175D01*
X107720081Y-73529869D01*
X107802775Y-73585124D01*
X107900320Y-73604527D01*
X109099200Y-73604527D01*
X109196745Y-73585124D01*
X109279439Y-73529869D01*
X109334694Y-73447175D01*
X109354097Y-73349630D01*
X109354097Y-72529547D01*
X109649300Y-72234343D01*
X109649300Y-72771733D01*
X109713960Y-73096800D01*
X109898095Y-73372378D01*
X110173673Y-73556513D01*
X110498740Y-73621173D01*
X110823807Y-73556513D01*
X110944367Y-73475957D01*
X115233575Y-77765165D01*
X115355234Y-77846455D01*
X115498740Y-77875000D01*
X132000000Y-77875000D01*
X132143507Y-77846455D01*
X132265165Y-77765165D01*
X133780330Y-76250000D01*
X135250245Y-76250000D01*
X135364407Y-76823931D01*
X135689513Y-77310487D01*
X136176069Y-77635593D01*
X136750000Y-77749755D01*
X137323931Y-77635593D01*
X137810487Y-77310487D01*
X138135593Y-76823931D01*
X138249755Y-76250000D01*
X138135593Y-75676069D01*
X137810487Y-75189513D01*
X137323931Y-74864407D01*
X136750000Y-74750245D01*
X136176069Y-74864407D01*
X135689513Y-75189513D01*
X135364407Y-75676069D01*
X135250245Y-76250000D01*
X133780330Y-76250000D01*
X136584786Y-73445544D01*
X136750000Y-73478407D01*
X137056147Y-73417511D01*
X137315685Y-73244092D01*
X137489104Y-72984554D01*
X137550000Y-72678407D01*
X137550000Y-71321593D01*
X137489104Y-71015446D01*
X137315685Y-70755908D01*
X137119769Y-70625000D01*
X138380231Y-70625000D01*
X138184315Y-70755908D01*
X138010896Y-71015446D01*
X137950000Y-71321593D01*
X137950000Y-72678407D01*
X138010896Y-72984554D01*
X138184315Y-73244092D01*
X138443853Y-73417511D01*
X138750000Y-73478407D01*
X139056147Y-73417511D01*
X139315685Y-73244092D01*
X139489104Y-72984554D01*
X139550000Y-72678407D01*
X139550000Y-71321593D01*
X139534859Y-71245471D01*
X141230347Y-69549983D01*
X141358922Y-69550095D01*
X141561143Y-69466539D01*
X141715995Y-69311957D01*
X141799904Y-69109882D01*
X141800095Y-68891078D01*
X141716539Y-68688857D01*
X141561957Y-68534005D01*
X141359882Y-68450096D01*
X141262479Y-68450011D01*
X141299904Y-68359882D01*
X141300095Y-68141078D01*
X141216539Y-67938857D01*
X141061957Y-67784005D01*
X140859882Y-67700096D01*
X140641078Y-67699905D01*
X140438857Y-67783461D01*
X140284005Y-67938043D01*
X140200096Y-68140118D01*
X140199983Y-68269687D01*
X138594670Y-69875000D01*
X134000000Y-69875000D01*
X133856493Y-69903545D01*
X133734835Y-69984835D01*
X133104723Y-70614947D01*
X133056147Y-70582489D01*
X132750000Y-70521593D01*
X132443853Y-70582489D01*
X132184315Y-70755908D01*
X132010896Y-71015446D01*
X131950000Y-71321593D01*
X131950000Y-72678407D01*
X132010896Y-72984554D01*
X132184315Y-73244092D01*
X132443853Y-73417511D01*
X132750000Y-73478407D01*
X133056147Y-73417511D01*
X133315685Y-73244092D01*
X133489104Y-72984554D01*
X133550000Y-72678407D01*
X133550000Y-71321593D01*
X133534859Y-71245471D01*
X134155330Y-70625000D01*
X134380231Y-70625000D01*
X134184315Y-70755908D01*
X134010896Y-71015446D01*
X133950000Y-71321593D01*
X133950000Y-72678407D01*
X134010896Y-72984554D01*
X134100706Y-73118964D01*
X131094670Y-76125000D01*
X118654570Y-76125000D01*
X117623070Y-75093500D01*
X125492000Y-75093500D01*
X125492000Y-75310993D01*
X125576951Y-75516082D01*
X125733918Y-75673050D01*
X125939007Y-75758000D01*
X126306500Y-75758000D01*
X126446000Y-75618500D01*
X126446000Y-74954000D01*
X126854000Y-74954000D01*
X126854000Y-75618500D01*
X126993500Y-75758000D01*
X127360993Y-75758000D01*
X127566082Y-75673050D01*
X127723049Y-75516082D01*
X127808000Y-75310993D01*
X127808000Y-75093500D01*
X127668500Y-74954000D01*
X126854000Y-74954000D01*
X126446000Y-74954000D01*
X125631500Y-74954000D01*
X125492000Y-75093500D01*
X117623070Y-75093500D01*
X116718577Y-74189007D01*
X125492000Y-74189007D01*
X125492000Y-74406500D01*
X125631500Y-74546000D01*
X126446000Y-74546000D01*
X126446000Y-73881500D01*
X126854000Y-73881500D01*
X126854000Y-74546000D01*
X127668500Y-74546000D01*
X127808000Y-74406500D01*
X127808000Y-74189007D01*
X127723049Y-73983918D01*
X127566082Y-73826950D01*
X127360993Y-73742000D01*
X126993500Y-73742000D01*
X126854000Y-73881500D01*
X126446000Y-73881500D01*
X126306500Y-73742000D01*
X125939007Y-73742000D01*
X125733918Y-73826950D01*
X125576951Y-73983918D01*
X125492000Y-74189007D01*
X116718577Y-74189007D01*
X116284017Y-73754447D01*
X116296760Y-73747479D01*
X116296760Y-72704000D01*
X116704760Y-72704000D01*
X116704760Y-73747479D01*
X116880477Y-73843571D01*
X117220841Y-73662713D01*
X117500250Y-73335250D01*
X117779659Y-73662713D01*
X118120023Y-73843571D01*
X118295740Y-73747479D01*
X118295740Y-72704000D01*
X116704760Y-72704000D01*
X116296760Y-72704000D01*
X116276760Y-72704000D01*
X116276760Y-72296000D01*
X116296760Y-72296000D01*
X116296760Y-71252521D01*
X116128819Y-71160681D01*
X116246000Y-71043500D01*
X116246000Y-70437500D01*
X116654000Y-70437500D01*
X116654000Y-71043500D01*
X116793500Y-71183000D01*
X116831888Y-71183000D01*
X116704760Y-71252521D01*
X116704760Y-72296000D01*
X118295740Y-72296000D01*
X118295740Y-71252521D01*
X118120023Y-71156429D01*
X117779659Y-71337287D01*
X117500250Y-71664750D01*
X117220841Y-71337287D01*
X116930482Y-71183000D01*
X117160993Y-71183000D01*
X117366082Y-71098050D01*
X117523049Y-70941082D01*
X117608000Y-70735993D01*
X117608000Y-70577000D01*
X117468500Y-70437500D01*
X116654000Y-70437500D01*
X116246000Y-70437500D01*
X116226000Y-70437500D01*
X116226000Y-70062500D01*
X116246000Y-70062500D01*
X116246000Y-69456500D01*
X116654000Y-69456500D01*
X116654000Y-70062500D01*
X117468500Y-70062500D01*
X117608000Y-69923000D01*
X117608000Y-69764007D01*
X117523049Y-69558918D01*
X117366082Y-69401950D01*
X117160993Y-69317000D01*
X116793500Y-69317000D01*
X116654000Y-69456500D01*
X116246000Y-69456500D01*
X116106500Y-69317000D01*
X115739007Y-69317000D01*
X115533918Y-69401950D01*
X115376951Y-69558918D01*
X115322754Y-69689760D01*
X115247545Y-69639506D01*
X115150000Y-69620103D01*
X114925000Y-69620103D01*
X114925000Y-69204897D01*
X115000000Y-69204897D01*
X115097545Y-69185494D01*
X115180239Y-69130239D01*
X115235494Y-69047545D01*
X115254897Y-68950000D01*
X115254897Y-68050000D01*
X115235494Y-67952455D01*
X115180239Y-67869761D01*
X115097545Y-67814506D01*
X115000000Y-67795103D01*
X113800000Y-67795103D01*
X113702455Y-67814506D01*
X113619761Y-67869761D01*
X113564506Y-67952455D01*
X113545103Y-68050000D01*
X113545103Y-68950000D01*
X113564506Y-69047545D01*
X113619761Y-69130239D01*
X113702455Y-69185494D01*
X113800000Y-69204897D01*
X114175000Y-69204897D01*
X114175000Y-69620103D01*
X113950000Y-69620103D01*
X113852455Y-69639506D01*
X113769761Y-69694761D01*
X113714506Y-69777455D01*
X113695103Y-69875000D01*
X113695103Y-70625000D01*
X113714506Y-70722545D01*
X113769761Y-70805239D01*
X113852455Y-70860494D01*
X113950000Y-70879897D01*
X114175000Y-70879897D01*
X114175000Y-71443322D01*
X114174173Y-71443487D01*
X113898595Y-71627622D01*
X113714460Y-71903200D01*
X113649800Y-72228267D01*
X113649800Y-72295998D01*
X113522260Y-72295998D01*
X113654685Y-72113733D01*
X113514735Y-71682312D01*
X113220341Y-71337287D01*
X112879977Y-71156429D01*
X112704260Y-71252521D01*
X112704260Y-72296000D01*
X112724260Y-72296000D01*
X112724260Y-72704000D01*
X112704260Y-72704000D01*
X112704260Y-73747479D01*
X112879977Y-73843571D01*
X113220341Y-73662713D01*
X113514735Y-73317688D01*
X113654685Y-72886267D01*
X113522260Y-72704002D01*
X113649800Y-72704002D01*
X113649800Y-72771733D01*
X113714460Y-73096800D01*
X113898595Y-73372378D01*
X114174173Y-73556513D01*
X114499240Y-73621173D01*
X114824307Y-73556513D01*
X114944867Y-73475957D01*
X118234075Y-76765165D01*
X118355734Y-76846455D01*
X118499240Y-76875000D01*
X131250000Y-76875000D01*
X131393507Y-76846455D01*
X131515165Y-76765165D01*
X134814816Y-73465514D01*
X135056147Y-73417511D01*
X135315685Y-73244092D01*
X135489104Y-72984554D01*
X135550000Y-72678407D01*
X135550000Y-71321593D01*
X135489104Y-71015446D01*
X135315685Y-70755908D01*
X135119769Y-70625000D01*
X136380231Y-70625000D01*
X136184315Y-70755908D01*
X136010896Y-71015446D01*
X135950000Y-71321593D01*
X135950000Y-72678407D01*
X136006619Y-72963051D01*
X131844670Y-77125000D01*
X115654070Y-77125000D01*
X112283517Y-73754447D01*
X112296260Y-73747479D01*
X112296260Y-72704000D01*
X112276260Y-72704000D01*
X112276260Y-72296000D01*
X112296260Y-72296000D01*
X112296260Y-71252521D01*
X112120543Y-71156429D01*
X111780179Y-71337287D01*
X111485785Y-71682312D01*
X111345835Y-72113733D01*
X111478260Y-72295998D01*
X111348180Y-72295998D01*
X111348180Y-72228267D01*
X111283520Y-71903200D01*
X111099385Y-71627622D01*
X110823807Y-71443487D01*
X110498740Y-71378827D01*
X110443419Y-71389831D01*
X110477425Y-71338938D01*
X110525000Y-71099760D01*
X110525000Y-65350000D01*
X111275000Y-65350000D01*
X111294134Y-65346194D01*
X111310355Y-65335355D01*
X111321194Y-65319134D01*
X111325000Y-65300000D01*
X111325000Y-62574755D01*
X111334506Y-62622545D01*
X111389761Y-62705239D01*
X111472455Y-62760494D01*
X111570000Y-62779897D01*
X112630000Y-62779897D01*
X112727545Y-62760494D01*
X112810239Y-62705239D01*
X112865494Y-62622545D01*
X112871271Y-62593500D01*
X113067000Y-62593500D01*
X113067000Y-63110993D01*
X113151950Y-63316082D01*
X113308918Y-63473049D01*
X113514007Y-63558000D01*
X113906500Y-63558000D01*
X114046000Y-63418500D01*
X114046000Y-62454000D01*
X114454000Y-62454000D01*
X114454000Y-63418500D01*
X114593500Y-63558000D01*
X114985993Y-63558000D01*
X115191082Y-63473049D01*
X115348050Y-63316082D01*
X115433000Y-63110993D01*
X115433000Y-62593500D01*
X115293500Y-62454000D01*
X114454000Y-62454000D01*
X114046000Y-62454000D01*
X113206500Y-62454000D01*
X113067000Y-62593500D01*
X112871271Y-62593500D01*
X112884897Y-62525000D01*
X112884897Y-62050000D01*
X116225000Y-62050000D01*
X116225000Y-67795103D01*
X116000000Y-67795103D01*
X115902455Y-67814506D01*
X115819761Y-67869761D01*
X115764506Y-67952455D01*
X115745103Y-68050000D01*
X115745103Y-68950000D01*
X115764506Y-69047545D01*
X115819761Y-69130239D01*
X115902455Y-69185494D01*
X116000000Y-69204897D01*
X117200000Y-69204897D01*
X117297545Y-69185494D01*
X117380239Y-69130239D01*
X117435494Y-69047545D01*
X117454897Y-68950000D01*
X117454897Y-68050000D01*
X117435494Y-67952455D01*
X117380239Y-67869761D01*
X117297545Y-67814506D01*
X117200000Y-67795103D01*
X116975000Y-67795103D01*
X116975000Y-62990000D01*
X123521593Y-62990000D01*
X123582489Y-63296147D01*
X123755908Y-63555685D01*
X124015446Y-63729104D01*
X124321593Y-63790000D01*
X125678407Y-63790000D01*
X125984554Y-63729104D01*
X126244092Y-63555685D01*
X126417511Y-63296147D01*
X126478407Y-62990000D01*
X126417511Y-62683853D01*
X126244092Y-62424315D01*
X125984554Y-62250896D01*
X125678407Y-62190000D01*
X124321593Y-62190000D01*
X124015446Y-62250896D01*
X123755908Y-62424315D01*
X123582489Y-62683853D01*
X123521593Y-62990000D01*
X116975000Y-62990000D01*
X116975000Y-62050000D01*
X118250000Y-62050000D01*
X118269134Y-62046194D01*
X118285355Y-62035355D01*
X119330710Y-60990000D01*
X123521593Y-60990000D01*
X123582489Y-61296147D01*
X123755908Y-61555685D01*
X124015446Y-61729104D01*
X124321593Y-61790000D01*
X125678407Y-61790000D01*
X125984554Y-61729104D01*
X126244092Y-61555685D01*
X126417511Y-61296147D01*
X126478407Y-60990000D01*
X126417511Y-60683853D01*
X126244092Y-60424315D01*
X125984554Y-60250896D01*
X125678407Y-60190000D01*
X124321593Y-60190000D01*
X124015446Y-60250896D01*
X123755908Y-60424315D01*
X123582489Y-60683853D01*
X123521593Y-60990000D01*
X119330710Y-60990000D01*
X120527210Y-59793500D01*
X121567000Y-59793500D01*
X121567000Y-60160993D01*
X121651950Y-60366082D01*
X121808918Y-60523049D01*
X122014007Y-60608000D01*
X122173000Y-60608000D01*
X122312500Y-60468500D01*
X122312500Y-59654000D01*
X122687500Y-59654000D01*
X122687500Y-60468500D01*
X122827000Y-60608000D01*
X122985993Y-60608000D01*
X123191082Y-60523049D01*
X123348050Y-60366082D01*
X123433000Y-60160993D01*
X123433000Y-59793500D01*
X123293500Y-59654000D01*
X122687500Y-59654000D01*
X122312500Y-59654000D01*
X121706500Y-59654000D01*
X121567000Y-59793500D01*
X120527210Y-59793500D01*
X121020710Y-59300000D01*
X123585064Y-59300000D01*
X123755908Y-59555685D01*
X124015446Y-59729104D01*
X124321593Y-59790000D01*
X125678407Y-59790000D01*
X125984554Y-59729104D01*
X126244092Y-59555685D01*
X126414936Y-59300000D01*
X128375000Y-59300000D01*
X128375000Y-63594670D01*
X126344670Y-65625000D01*
X126140356Y-65625000D01*
X126244092Y-65555685D01*
X126417511Y-65296147D01*
X126478407Y-64990000D01*
X126417511Y-64683853D01*
X126244092Y-64424315D01*
X125984554Y-64250896D01*
X125678407Y-64190000D01*
X124321593Y-64190000D01*
X124015446Y-64250896D01*
X123755908Y-64424315D01*
X123582489Y-64683853D01*
X123521593Y-64990000D01*
X123582489Y-65296147D01*
X123755908Y-65555685D01*
X123859644Y-65625000D01*
X123000000Y-65625000D01*
X122856493Y-65653545D01*
X122734835Y-65734835D01*
X120236095Y-68233575D01*
X120154805Y-68355233D01*
X120154071Y-68358922D01*
X120126260Y-68498740D01*
X120126260Y-71476851D01*
X119900615Y-71627622D01*
X119716480Y-71903200D01*
X119651820Y-72228267D01*
X119651820Y-72295998D01*
X119521740Y-72295998D01*
X119654165Y-72113733D01*
X119514215Y-71682312D01*
X119219821Y-71337287D01*
X118879457Y-71156429D01*
X118703740Y-71252521D01*
X118703740Y-72296000D01*
X118723740Y-72296000D01*
X118723740Y-72704000D01*
X118703740Y-72704000D01*
X118703740Y-73747479D01*
X118879457Y-73843571D01*
X119219821Y-73662713D01*
X119514215Y-73317688D01*
X119654165Y-72886267D01*
X119521740Y-72704002D01*
X119651820Y-72704002D01*
X119651820Y-72771733D01*
X119716480Y-73096800D01*
X119900615Y-73372378D01*
X120176193Y-73556513D01*
X120501260Y-73621173D01*
X120826327Y-73556513D01*
X121101905Y-73372378D01*
X121286040Y-73096800D01*
X121350700Y-72771733D01*
X121350700Y-72228267D01*
X121650800Y-72228267D01*
X121650800Y-72771733D01*
X121715460Y-73096800D01*
X121899595Y-73372378D01*
X122175173Y-73556513D01*
X122500240Y-73621173D01*
X122825307Y-73556513D01*
X123100885Y-73372378D01*
X123285020Y-73096800D01*
X123349680Y-72771733D01*
X123349680Y-72228267D01*
X123285020Y-71903200D01*
X123100885Y-71627622D01*
X122825307Y-71443487D01*
X122500240Y-71378827D01*
X122175173Y-71443487D01*
X121899595Y-71627622D01*
X121715460Y-71903200D01*
X121650800Y-72228267D01*
X121350700Y-72228267D01*
X121286040Y-71903200D01*
X121101905Y-71627622D01*
X120876260Y-71476851D01*
X120876260Y-71321593D01*
X127950000Y-71321593D01*
X127950000Y-72678407D01*
X128010896Y-72984554D01*
X128184315Y-73244092D01*
X128375000Y-73371505D01*
X128375000Y-74045103D01*
X128250000Y-74045103D01*
X128152455Y-74064506D01*
X128069761Y-74119761D01*
X128014506Y-74202455D01*
X127995103Y-74300000D01*
X127995103Y-75200000D01*
X128014506Y-75297545D01*
X128069761Y-75380239D01*
X128152455Y-75435494D01*
X128250000Y-75454897D01*
X129450000Y-75454897D01*
X129547545Y-75435494D01*
X129630239Y-75380239D01*
X129685494Y-75297545D01*
X129704897Y-75200000D01*
X129704897Y-74300000D01*
X129685494Y-74202455D01*
X129630239Y-74119761D01*
X129547545Y-74064506D01*
X129450000Y-74045103D01*
X129125000Y-74045103D01*
X129125000Y-73371505D01*
X129315685Y-73244092D01*
X129489104Y-72984554D01*
X129550000Y-72678407D01*
X129550000Y-71321593D01*
X129950000Y-71321593D01*
X129950000Y-72678407D01*
X130010896Y-72984554D01*
X130184315Y-73244092D01*
X130443853Y-73417511D01*
X130750000Y-73478407D01*
X131056147Y-73417511D01*
X131315685Y-73244092D01*
X131489104Y-72984554D01*
X131550000Y-72678407D01*
X131550000Y-71321593D01*
X131489104Y-71015446D01*
X131315685Y-70755908D01*
X131056147Y-70582489D01*
X130750000Y-70521593D01*
X130443853Y-70582489D01*
X130184315Y-70755908D01*
X130010896Y-71015446D01*
X129950000Y-71321593D01*
X129550000Y-71321593D01*
X129489104Y-71015446D01*
X129315685Y-70755908D01*
X129056147Y-70582489D01*
X128750000Y-70521593D01*
X128443853Y-70582489D01*
X128184315Y-70755908D01*
X128010896Y-71015446D01*
X127950000Y-71321593D01*
X120876260Y-71321593D01*
X120876260Y-68990000D01*
X123521593Y-68990000D01*
X123582489Y-69296147D01*
X123755908Y-69555685D01*
X124015446Y-69729104D01*
X124321593Y-69790000D01*
X125678407Y-69790000D01*
X125984554Y-69729104D01*
X126244092Y-69555685D01*
X126417511Y-69296147D01*
X126478407Y-68990000D01*
X126417511Y-68683853D01*
X126244092Y-68424315D01*
X125984554Y-68250896D01*
X125678407Y-68190000D01*
X124321593Y-68190000D01*
X124015446Y-68250896D01*
X123755908Y-68424315D01*
X123582489Y-68683853D01*
X123521593Y-68990000D01*
X120876260Y-68990000D01*
X120876260Y-68654070D01*
X123155330Y-66375000D01*
X123829713Y-66375000D01*
X123755908Y-66424315D01*
X123582489Y-66683853D01*
X123521593Y-66990000D01*
X123582489Y-67296147D01*
X123755908Y-67555685D01*
X124015446Y-67729104D01*
X124321593Y-67790000D01*
X125678407Y-67790000D01*
X125984554Y-67729104D01*
X126244092Y-67555685D01*
X126417511Y-67296147D01*
X126434861Y-67208922D01*
X130749905Y-67208922D01*
X130833461Y-67411143D01*
X130988043Y-67565995D01*
X131190118Y-67649904D01*
X131408922Y-67650095D01*
X131611143Y-67566539D01*
X131765995Y-67411957D01*
X131849904Y-67209882D01*
X131850095Y-66991078D01*
X131766539Y-66788857D01*
X131611957Y-66634005D01*
X131409882Y-66550096D01*
X131191078Y-66549905D01*
X130988857Y-66633461D01*
X130834005Y-66788043D01*
X130750096Y-66990118D01*
X130749905Y-67208922D01*
X126434861Y-67208922D01*
X126478407Y-66990000D01*
X126417511Y-66683853D01*
X126244092Y-66424315D01*
X126170287Y-66375000D01*
X126500000Y-66375000D01*
X126643507Y-66346455D01*
X126765165Y-66265165D01*
X129015165Y-64015165D01*
X129096455Y-63893506D01*
X129125000Y-63750000D01*
X129125000Y-60008922D01*
X130849905Y-60008922D01*
X130933461Y-60211143D01*
X131088043Y-60365995D01*
X131290118Y-60449904D01*
X131508922Y-60450095D01*
X131711143Y-60366539D01*
X131865995Y-60211957D01*
X131949904Y-60009882D01*
X131950095Y-59791078D01*
X131866539Y-59588857D01*
X131711957Y-59434005D01*
X131509882Y-59350096D01*
X131291078Y-59349905D01*
X131088857Y-59433461D01*
X130934005Y-59588043D01*
X130850096Y-59790118D01*
X130849905Y-60008922D01*
X129125000Y-60008922D01*
X129125000Y-57371505D01*
X129315685Y-57244092D01*
X129489104Y-56984554D01*
X129550000Y-56678407D01*
X129550000Y-55321593D01*
X129950000Y-55321593D01*
X129950000Y-56678407D01*
X130010896Y-56984554D01*
X130184315Y-57244092D01*
X130443853Y-57417511D01*
X130750000Y-57478407D01*
X131056147Y-57417511D01*
X131315685Y-57244092D01*
X131489104Y-56984554D01*
X131550000Y-56678407D01*
X131550000Y-55321593D01*
X131950000Y-55321593D01*
X131950000Y-56678407D01*
X132010896Y-56984554D01*
X132184315Y-57244092D01*
X132443853Y-57417511D01*
X132750000Y-57478407D01*
X133056147Y-57417511D01*
X133315685Y-57244092D01*
X133489104Y-56984554D01*
X133550000Y-56678407D01*
X133550000Y-55321593D01*
X133950000Y-55321593D01*
X133950000Y-56678407D01*
X134010896Y-56984554D01*
X134184315Y-57244092D01*
X134443853Y-57417511D01*
X134750000Y-57478407D01*
X134915214Y-57445544D01*
X135934835Y-58465165D01*
X136056494Y-58546455D01*
X136200000Y-58575000D01*
X139400000Y-58575000D01*
X139543507Y-58546455D01*
X139665165Y-58465165D01*
X140675433Y-57454897D01*
X141300000Y-57454897D01*
X141397545Y-57435494D01*
X141480239Y-57380239D01*
X141535494Y-57297545D01*
X141554897Y-57200000D01*
X141554897Y-54800000D01*
X141535494Y-54702455D01*
X141480239Y-54619761D01*
X141397545Y-54564506D01*
X141300000Y-54545103D01*
X140200000Y-54545103D01*
X140102455Y-54564506D01*
X140019761Y-54619761D01*
X139964506Y-54702455D01*
X139945103Y-54800000D01*
X139945103Y-57124567D01*
X139244670Y-57825000D01*
X136355330Y-57825000D01*
X135493381Y-56963051D01*
X135550000Y-56678407D01*
X135550000Y-55321593D01*
X135950000Y-55321593D01*
X135950000Y-56678407D01*
X136010896Y-56984554D01*
X136184315Y-57244092D01*
X136443853Y-57417511D01*
X136750000Y-57478407D01*
X137056147Y-57417511D01*
X137315685Y-57244092D01*
X137489104Y-56984554D01*
X137550000Y-56678407D01*
X137550000Y-55321593D01*
X137950000Y-55321593D01*
X137950000Y-56678407D01*
X138010896Y-56984554D01*
X138184315Y-57244092D01*
X138443853Y-57417511D01*
X138750000Y-57478407D01*
X139056147Y-57417511D01*
X139315685Y-57244092D01*
X139489104Y-56984554D01*
X139550000Y-56678407D01*
X139550000Y-55321593D01*
X139489104Y-55015446D01*
X139315685Y-54755908D01*
X139056147Y-54582489D01*
X138750000Y-54521593D01*
X138443853Y-54582489D01*
X138184315Y-54755908D01*
X138010896Y-55015446D01*
X137950000Y-55321593D01*
X137550000Y-55321593D01*
X137489104Y-55015446D01*
X137315685Y-54755908D01*
X137125000Y-54628495D01*
X137125000Y-54204897D01*
X137200000Y-54204897D01*
X137297545Y-54185494D01*
X137380239Y-54130239D01*
X137435494Y-54047545D01*
X137454897Y-53950000D01*
X137454897Y-52750000D01*
X137435494Y-52652455D01*
X137380239Y-52569761D01*
X137297545Y-52514506D01*
X137200000Y-52495103D01*
X136300000Y-52495103D01*
X136202455Y-52514506D01*
X136119761Y-52569761D01*
X136064506Y-52652455D01*
X136045103Y-52750000D01*
X136045103Y-53950000D01*
X136064506Y-54047545D01*
X136119761Y-54130239D01*
X136202455Y-54185494D01*
X136300000Y-54204897D01*
X136375000Y-54204897D01*
X136375000Y-54628495D01*
X136184315Y-54755908D01*
X136010896Y-55015446D01*
X135950000Y-55321593D01*
X135550000Y-55321593D01*
X135489104Y-55015446D01*
X135315685Y-54755908D01*
X135125000Y-54628495D01*
X135125000Y-54204897D01*
X135200000Y-54204897D01*
X135297545Y-54185494D01*
X135380239Y-54130239D01*
X135435494Y-54047545D01*
X135454897Y-53950000D01*
X135454897Y-52750000D01*
X135435494Y-52652455D01*
X135380239Y-52569761D01*
X135297545Y-52514506D01*
X135200000Y-52495103D01*
X134300000Y-52495103D01*
X134202455Y-52514506D01*
X134119761Y-52569761D01*
X134064506Y-52652455D01*
X134045103Y-52750000D01*
X134045103Y-53950000D01*
X134064506Y-54047545D01*
X134119761Y-54130239D01*
X134202455Y-54185494D01*
X134300000Y-54204897D01*
X134375000Y-54204897D01*
X134375000Y-54628495D01*
X134184315Y-54755908D01*
X134010896Y-55015446D01*
X133950000Y-55321593D01*
X133550000Y-55321593D01*
X133489104Y-55015446D01*
X133315685Y-54755908D01*
X133056147Y-54582489D01*
X132750000Y-54521593D01*
X132443853Y-54582489D01*
X132184315Y-54755908D01*
X132010896Y-55015446D01*
X131950000Y-55321593D01*
X131550000Y-55321593D01*
X131489104Y-55015446D01*
X131315685Y-54755908D01*
X131056147Y-54582489D01*
X130750000Y-54521593D01*
X130443853Y-54582489D01*
X130184315Y-54755908D01*
X130010896Y-55015446D01*
X129950000Y-55321593D01*
X129550000Y-55321593D01*
X129489104Y-55015446D01*
X129315685Y-54755908D01*
X129056147Y-54582489D01*
X128800000Y-54531539D01*
X128800000Y-53875000D01*
X132400000Y-53875000D01*
X132543507Y-53846455D01*
X132665165Y-53765165D01*
X134425433Y-52004897D01*
X135200000Y-52004897D01*
X135297545Y-51985494D01*
X135380239Y-51930239D01*
X135435494Y-51847545D01*
X135454897Y-51750000D01*
X135454897Y-51525000D01*
X136045103Y-51525000D01*
X136045103Y-51750000D01*
X136064506Y-51847545D01*
X136119761Y-51930239D01*
X136202455Y-51985494D01*
X136300000Y-52004897D01*
X137200000Y-52004897D01*
X137297545Y-51985494D01*
X137380239Y-51930239D01*
X137435494Y-51847545D01*
X137454897Y-51750000D01*
X137454897Y-50550000D01*
X137435494Y-50452455D01*
X137380239Y-50369761D01*
X137297545Y-50314506D01*
X137224619Y-50300000D01*
X142200000Y-50300000D01*
X142200000Y-70672289D01*
G36*
X102450000Y-50580550D02*
X102420000Y-50574583D01*
X101993844Y-50659351D01*
X101632566Y-50900749D01*
X101391168Y-51262027D01*
X101306400Y-51688183D01*
X101306400Y-51731817D01*
X101391168Y-52157973D01*
X101632566Y-52519251D01*
X101993844Y-52760649D01*
X102334450Y-52828400D01*
X102215998Y-52828400D01*
X102215998Y-52984233D01*
X101998426Y-52892347D01*
X101758083Y-52991883D01*
X101327008Y-53340956D01*
X101062331Y-53828423D01*
X101152597Y-54046000D01*
X102216000Y-54046000D01*
X102216000Y-54026000D01*
X102450000Y-54026000D01*
X102450000Y-60034912D01*
X102133367Y-59779099D01*
X101733988Y-59661288D01*
X101566540Y-59798785D01*
X101566540Y-60350000D01*
X101158540Y-60350000D01*
X101158540Y-59798785D01*
X100991092Y-59661288D01*
X100591713Y-59779099D01*
X100267819Y-60040778D01*
X100225000Y-60119508D01*
X100225000Y-54671577D01*
X101062331Y-54671577D01*
X101327008Y-55159044D01*
X101758083Y-55508117D01*
X101998426Y-55607653D01*
X102216000Y-55515766D01*
X102216000Y-54454000D01*
X101152597Y-54454000D01*
X101062331Y-54671577D01*
X100225000Y-54671577D01*
X100225000Y-50300000D01*
X102450000Y-50300000D01*
X102450000Y-50580550D01*
X102450000Y-50580550D01*
G37*
X102450000Y-50580550D02*
X102420000Y-50574583D01*
X101993844Y-50659351D01*
X101632566Y-50900749D01*
X101391168Y-51262027D01*
X101306400Y-51688183D01*
X101306400Y-51731817D01*
X101391168Y-52157973D01*
X101632566Y-52519251D01*
X101993844Y-52760649D01*
X102334450Y-52828400D01*
X102215998Y-52828400D01*
X102215998Y-52984233D01*
X101998426Y-52892347D01*
X101758083Y-52991883D01*
X101327008Y-53340956D01*
X101062331Y-53828423D01*
X101152597Y-54046000D01*
X102216000Y-54046000D01*
X102216000Y-54026000D01*
X102450000Y-54026000D01*
X102450000Y-60034912D01*
X102133367Y-59779099D01*
X101733988Y-59661288D01*
X101566540Y-59798785D01*
X101566540Y-60350000D01*
X101158540Y-60350000D01*
X101158540Y-59798785D01*
X100991092Y-59661288D01*
X100591713Y-59779099D01*
X100267819Y-60040778D01*
X100225000Y-60119508D01*
X100225000Y-54671577D01*
X101062331Y-54671577D01*
X101327008Y-55159044D01*
X101758083Y-55508117D01*
X101998426Y-55607653D01*
X102216000Y-55515766D01*
X102216000Y-54454000D01*
X101152597Y-54454000D01*
X101062331Y-54671577D01*
X100225000Y-54671577D01*
X100225000Y-50300000D01*
X102450000Y-50300000D01*
X102450000Y-50580550D01*
G36*
X110925000Y-64300000D02*
X105550000Y-64300000D01*
X105550000Y-63125000D01*
X105546802Y-63108922D01*
X106699905Y-63108922D01*
X106783461Y-63311143D01*
X106938043Y-63465995D01*
X107140118Y-63549904D01*
X107358922Y-63550095D01*
X107561143Y-63466539D01*
X107715995Y-63311957D01*
X107739688Y-63254897D01*
X107760221Y-63254897D01*
X107783461Y-63311143D01*
X107938043Y-63465995D01*
X108140118Y-63549904D01*
X108358922Y-63550095D01*
X108561143Y-63466539D01*
X108715995Y-63311957D01*
X108799904Y-63109882D01*
X108800095Y-62891078D01*
X108716539Y-62688857D01*
X108629897Y-62602064D01*
X108629897Y-61900433D01*
X108905330Y-61625000D01*
X109125049Y-61625000D01*
X109134506Y-61672545D01*
X109189761Y-61755239D01*
X109272455Y-61810494D01*
X109370000Y-61829897D01*
X110430000Y-61829897D01*
X110527545Y-61810494D01*
X110610239Y-61755239D01*
X110665494Y-61672545D01*
X110684897Y-61575000D01*
X110684897Y-60925000D01*
X110665494Y-60827455D01*
X110610239Y-60744761D01*
X110527545Y-60689506D01*
X110430000Y-60670103D01*
X109370000Y-60670103D01*
X109272455Y-60689506D01*
X109189761Y-60744761D01*
X109134506Y-60827455D01*
X109125049Y-60875000D01*
X108750000Y-60875000D01*
X108606494Y-60903545D01*
X108484835Y-60984835D01*
X108224567Y-61245103D01*
X107125000Y-61245103D01*
X107027455Y-61264506D01*
X106944761Y-61319761D01*
X106889506Y-61402455D01*
X106870103Y-61500000D01*
X106870103Y-62602095D01*
X106784005Y-62688043D01*
X106700096Y-62890118D01*
X106699905Y-63108922D01*
X105546802Y-63108922D01*
X105546194Y-63105866D01*
X105535355Y-63089645D01*
X105519134Y-63078806D01*
X105500000Y-63075000D01*
X103225000Y-63075000D01*
X103225000Y-61872630D01*
X103312410Y-61872630D01*
X103426351Y-62148386D01*
X103637145Y-62359548D01*
X103912701Y-62473969D01*
X104211070Y-62474230D01*
X104486826Y-62360289D01*
X104697988Y-62149495D01*
X104812409Y-61873939D01*
X104812670Y-61575570D01*
X104698729Y-61299814D01*
X104487935Y-61088652D01*
X104212379Y-60974231D01*
X103914010Y-60973970D01*
X103638254Y-61087911D01*
X103427092Y-61298705D01*
X103312671Y-61574261D01*
X103312410Y-61872630D01*
X103225000Y-61872630D01*
X103225000Y-58100000D01*
X110925000Y-58100000D01*
X110925000Y-64300000D01*
X110925000Y-64300000D01*
G37*
X110925000Y-64300000D02*
X105550000Y-64300000D01*
X105550000Y-63125000D01*
X105546802Y-63108922D01*
X106699905Y-63108922D01*
X106783461Y-63311143D01*
X106938043Y-63465995D01*
X107140118Y-63549904D01*
X107358922Y-63550095D01*
X107561143Y-63466539D01*
X107715995Y-63311957D01*
X107739688Y-63254897D01*
X107760221Y-63254897D01*
X107783461Y-63311143D01*
X107938043Y-63465995D01*
X108140118Y-63549904D01*
X108358922Y-63550095D01*
X108561143Y-63466539D01*
X108715995Y-63311957D01*
X108799904Y-63109882D01*
X108800095Y-62891078D01*
X108716539Y-62688857D01*
X108629897Y-62602064D01*
X108629897Y-61900433D01*
X108905330Y-61625000D01*
X109125049Y-61625000D01*
X109134506Y-61672545D01*
X109189761Y-61755239D01*
X109272455Y-61810494D01*
X109370000Y-61829897D01*
X110430000Y-61829897D01*
X110527545Y-61810494D01*
X110610239Y-61755239D01*
X110665494Y-61672545D01*
X110684897Y-61575000D01*
X110684897Y-60925000D01*
X110665494Y-60827455D01*
X110610239Y-60744761D01*
X110527545Y-60689506D01*
X110430000Y-60670103D01*
X109370000Y-60670103D01*
X109272455Y-60689506D01*
X109189761Y-60744761D01*
X109134506Y-60827455D01*
X109125049Y-60875000D01*
X108750000Y-60875000D01*
X108606494Y-60903545D01*
X108484835Y-60984835D01*
X108224567Y-61245103D01*
X107125000Y-61245103D01*
X107027455Y-61264506D01*
X106944761Y-61319761D01*
X106889506Y-61402455D01*
X106870103Y-61500000D01*
X106870103Y-62602095D01*
X106784005Y-62688043D01*
X106700096Y-62890118D01*
X106699905Y-63108922D01*
X105546802Y-63108922D01*
X105546194Y-63105866D01*
X105535355Y-63089645D01*
X105519134Y-63078806D01*
X105500000Y-63075000D01*
X103225000Y-63075000D01*
X103225000Y-61872630D01*
X103312410Y-61872630D01*
X103426351Y-62148386D01*
X103637145Y-62359548D01*
X103912701Y-62473969D01*
X104211070Y-62474230D01*
X104486826Y-62360289D01*
X104697988Y-62149495D01*
X104812409Y-61873939D01*
X104812670Y-61575570D01*
X104698729Y-61299814D01*
X104487935Y-61088652D01*
X104212379Y-60974231D01*
X103914010Y-60973970D01*
X103638254Y-61087911D01*
X103427092Y-61298705D01*
X103312671Y-61574261D01*
X103312410Y-61872630D01*
X103225000Y-61872630D01*
X103225000Y-58100000D01*
X110925000Y-58100000D01*
X110925000Y-64300000D01*
M02*
